# Blender 4.3.2
# www.blender.org
mtllib configmap.mtl
o configmap
v -1.182852 -1.013472 0.124872
v -1.182852 1.013472 0.124872
v -1.182852 -1.013472 -0.124872
v -1.182852 1.013472 -0.124872
v 1.182852 -1.013472 0.124872
v 1.182852 1.013472 0.124872
v 1.182852 -1.013472 -0.124872
v 1.182852 1.013472 -0.124872
v -1.182852 0.762129 0.124872
v -1.182852 0.762129 -0.124872
v 1.182852 0.445842 -0.124872
v 1.182852 0.762129 -0.124872
v 1.182852 0.445842 0.124872
v 1.182852 0.762129 0.124872
v -1.182852 -0.738162 0.124872
v -1.182852 -0.738162 -0.124872
v 1.182852 -0.738162 -0.124872
v 1.182852 -0.421874 -0.124872
v 1.182852 -0.738162 0.124872
v 1.182852 -0.421874 0.124872
v 1.182852 -0.158144 -0.124872
v 1.182852 0.158144 -0.124872
v 1.182852 -0.158144 0.124872
v 1.182852 0.158144 0.124872
v -0.603824 -0.421874 -0.124872
v -0.603824 -0.158144 -0.124872
v -0.603824 0.445842 -0.124872
v -0.603824 0.158144 -0.124872
v -0.603824 0.445842 0.124872
v -0.603824 0.158144 0.124872
v -0.603824 -0.421874 0.124872
v -0.603824 -0.158144 0.124872
v -0.126302 -0.421874 -0.124872
v 0.126302 -0.421874 -0.124872
v 0.126302 -0.158144 -0.124872
v -0.126302 -0.158144 -0.124872
v -0.126302 0.158144 -0.124872
v 0.126302 0.158144 -0.124872
v 0.126302 0.445842 -0.124872
v -0.126302 0.445842 -0.124872
v -0.126302 0.158144 0.124872
v 0.126302 0.158144 0.124872
v -0.126302 0.445842 0.124872
v 0.126302 0.445842 0.124872
v -0.126302 -0.421874 0.124872
v 0.126302 -0.421874 0.124872
v 0.126302 -0.158144 0.124872
v -0.126302 -0.158144 0.124872
v -0.478439 -1.013472 -0.124872
v -0.731042 -1.013472 -0.124872
v -0.731042 -0.738162 -0.124872
v -0.478439 -0.738162 -0.124872
v -0.478439 -1.013472 0.124872
v -0.731042 -1.013472 0.124872
v -0.731042 -0.738162 0.124872
v -0.478439 -0.738162 0.124872
v -0.731042 1.013472 -0.124872
v -0.478439 1.013472 -0.124872
v -0.478439 0.762129 -0.124872
v -0.731042 0.762129 -0.124872
v -0.731042 1.013472 0.124872
v -0.478439 1.013472 0.124872
v -0.478439 0.762129 0.124872
v -0.731042 0.762129 0.124872
vn -1.0000 -0.0000 -0.0000
vn -0.0000 -0.0000 -1.0000
vn 1.0000 -0.0000 -0.0000
vn -0.0000 -0.0000 1.0000
vn -0.0000 -1.0000 -0.0000
vn -0.0000 1.0000 -0.0000
vt 0.594000 0.000000
vt 0.625000 0.000000
vt 0.625000 0.250000
vt 0.594000 0.250000
vt 0.375000 0.250000
vt 0.375000 0.000000
vt 0.408956 0.000000
vt 0.408956 0.250000
vt 0.625000 0.324440
vt 0.625000 0.500000
vt 0.594000 0.500000
vt 0.594000 0.324440
vt 0.625000 0.297746
vt 0.594000 0.297746
vt 0.447967 0.311190
vt 0.480495 0.311190
vt 0.480495 0.361653
vt 0.447967 0.361653
vt 0.480495 0.500000
vt 0.447967 0.500000
vt 0.447967 0.388347
vt 0.480495 0.388347
vt 0.519505 0.311190
vt 0.554989 0.311190
vt 0.554989 0.361653
vt 0.519505 0.361653
vt 0.554989 0.500000
vt 0.519505 0.500000
vt 0.519505 0.388347
vt 0.554989 0.388347
vt 0.408956 0.297746
vt 0.375000 0.297746
vt 0.408956 0.324440
vt 0.408956 0.500000
vt 0.375000 0.500000
vt 0.375000 0.324440
vt 0.625000 0.750000
vt 0.594000 0.750000
vt 0.408956 0.750000
vt 0.375000 0.750000
vt 0.554989 0.750000
vt 0.519505 0.750000
vt 0.480495 0.750000
vt 0.447967 0.750000
vt 0.625000 1.000000
vt 0.594000 1.000000
vt 0.594000 0.952254
vt 0.625000 0.952254
vt 0.625000 0.925560
vt 0.594000 0.925560
vt 0.408956 0.925560
vt 0.375000 0.925560
vt 0.408956 1.000000
vt 0.375000 1.000000
vt 0.375000 0.952254
vt 0.408956 0.952254
vt 0.519505 0.861653
vt 0.554989 0.861653
vt 0.554989 0.888347
vt 0.554989 0.938810
vt 0.519505 0.938810
vt 0.519505 0.888347
vt 0.447967 0.861653
vt 0.480495 0.861653
vt 0.480495 0.938810
vt 0.447967 0.938810
vt 0.447967 0.888347
vt 0.480495 0.888347
vt 0.199440 0.500000
vt 0.199440 0.750000
vt 0.125000 0.750000
vt 0.125000 0.500000
vt 0.172746 0.500000
vt 0.172746 0.750000
vt 0.875000 0.500000
vt 0.875000 0.750000
vt 0.827254 0.750000
vt 0.827254 0.500000
vt 0.800560 0.750000
vt 0.800560 0.500000
vt 0.262503 0.723701
vt 0.367095 0.723701
vt 0.367095 0.526299
vt 0.262503 0.526299
vt 0.190225 0.526299
vt 0.190225 0.723701
vt 0.237497 0.723701
vt 0.237497 0.526299
vt 0.797363 0.526299
vt 0.632905 0.526299
vt 0.632905 0.723701
vt 0.797363 0.723701
vt 0.822369 0.723701
vt 0.867095 0.723701
vt 0.867095 0.526299
vt 0.822369 0.526299
vt 0.202638 0.723701
vt 0.367095 0.526299
vt 0.202638 0.526299
vt 0.177631 0.526299
vt 0.132905 0.526299
vt 0.132905 0.723701
vt 0.177631 0.723701
vt 0.809775 0.723701
vt 0.809775 0.526299
vt 0.762503 0.526299
vt 0.762503 0.723701
vt 0.632905 0.526299
vt 0.632905 0.723701
vt 0.737497 0.723701
vt 0.737497 0.526299
vt 0.190225 0.526299
vt 0.237497 0.526299
vt 0.367095 0.526299
vt 0.809775 0.723701
vt 0.809775 0.526299
vt 0.762503 0.723701
vt 0.632905 0.526299
vt 0.632905 0.723701
vt 0.737497 0.723701
vt 0.625000 0.526299
vt 0.625000 0.723701
vt 0.125000 0.527531
vt 0.125000 0.722469
vt 0.625000 0.527531
vt 0.625000 0.722469
vt 0.125000 0.722469
vt 0.625000 0.722469
s 0
f 9/1/1 2/2/1 4/3/1 10/4/1
f 3/5/1 1/6/1 15/7/1 16/8/1
f 58/9/2 8/10/2 12/11/2 59/12/2
f 10/4/2 4/3/2 57/13/2 60/14/2
f 25/15/2 26/16/2 36/17/2 33/18/2
f 21/19/2 18/20/2 34/21/2 35/22/2
f 28/23/2 27/24/2 40/25/2 37/26/2
f 11/27/2 22/28/2 38/29/2 39/30/2
f 3/5/2 16/8/2 51/31/2 50/32/2
f 52/33/2 17/34/2 7/35/2 49/36/2
f 12/11/3 8/10/3 6/37/3 14/38/3
f 19/39/3 5/40/3 7/35/3 17/34/3
f 22/28/3 11/27/3 13/41/3 24/42/3
f 23/43/3 20/44/3 18/20/3 21/19/3
f 2/45/4 9/46/4 64/47/4 61/48/4
f 14/38/4 6/37/4 62/49/4 63/50/4
f 5/40/4 19/39/4 56/51/4 53/52/4
f 15/53/4 1/54/4 54/55/4 55/56/4
f 42/57/4 24/42/4 13/41/4 44/58/4
f 43/59/4 29/60/4 30/61/4 41/62/4
f 46/63/4 20/44/4 23/43/4 47/64/4
f 32/65/4 31/66/4 45/67/4 48/68/4
f 49/69/5 7/35/5 5/40/5 53/70/5
f 1/71/5 3/72/5 50/73/5 54/74/5
f 4/75/6 2/76/6 61/77/6 57/78/6
f 62/79/6 6/37/6 8/10/6 58/80/6
f 44/81/6 13/82/6 11/83/6 39/84/6
f 27/85/6 29/86/6 43/87/6 40/88/6
f 59/89/5 12/90/5 14/91/5 63/92/5
f 64/93/5 9/94/5 10/95/5 60/96/5
f 56/97/6 19/82/6 17/98/6 52/99/6
f 51/100/6 16/101/6 15/102/6 55/103/6
f 31/104/5 25/105/5 33/106/5 45/107/5
f 18/108/5 20/109/5 46/110/5 34/111/5
f 26/112/6 32/86/6 48/87/6 36/113/6
f 23/82/6 21/114/6 35/84/6 47/81/6
f 30/115/5 28/116/5 37/106/5 41/117/5
f 22/118/5 24/119/5 42/120/5 38/111/5
f 25/121/1 31/122/1 32/122/1 26/121/1
f 29/122/1 27/121/1 28/121/1 30/122/1
f 37/123/3 40/123/3 43/124/3 41/124/3
f 33/123/3 36/123/3 48/124/3 45/124/3
f 35/125/1 34/125/1 46/126/1 47/126/1
f 44/126/1 39/125/1 38/125/1 42/126/1
f 55/127/3 54/127/3 50/123/3 51/123/3
f 49/125/1 53/128/1 56/128/1 52/125/1
f 60/123/3 57/123/3 61/127/3 64/127/3
f 63/128/1 62/128/1 58/125/1 59/125/1
