# Blender 4.3.2
# www.blender.org
mtllib crd.mtl
o crd
v -1.194345 -1.335307 0.431631
v 1.155110 0.090366 -0.236916
v -0.101806 -0.790650 0.431423
v -0.994569 0.090366 0.431423
v 1.155110 0.090366 0.431423
v -0.036815 -0.797051 0.431423
v -0.929578 0.083965 0.431423
v -0.101806 1.362945 -0.236916
v 0.025679 -0.816008 0.431423
v 1.220101 0.083965 -0.236916
v -1.194345 0.857601 0.431631
v 0.083274 -0.846793 0.431423
v -0.867084 0.065008 0.431423
v 1.220101 0.083965 0.431423
v 0.133756 -0.888223 0.431423
v -0.101806 1.362945 0.431423
v -0.809489 0.034223 0.431423
v 0.175185 -0.938705 0.431423
v -1.194345 -1.335307 -0.235850
v 1.282595 0.065008 -0.236916
v 0.205970 -0.996299 0.431423
v -0.759007 -0.007207 0.431423
v -0.036815 1.356544 -0.236916
v 0.224928 -1.058793 0.431423
v -0.717578 -0.057689 0.431423
v 1.282595 0.065008 0.431423
v 0.231329 -1.123785 0.431423
v -1.194345 0.857601 -0.235850
v 1.340190 0.034223 -0.236916
v -0.686793 -0.115284 0.431423
v -0.036815 1.356544 0.431423
v 1.340190 0.034223 0.431423
v -0.667835 -0.177777 0.431423
v 1.390672 -0.007207 -0.236916
v -0.661434 -0.242769 0.431423
v 0.025679 1.337586 -0.236916
v 1.390672 -0.007207 0.431423
v 0.998564 -1.335307 0.431631
v -0.667835 -0.307760 0.431423
v 0.025679 1.337586 0.431423
v 1.432101 -0.057689 -0.236916
v -0.686793 -0.370254 0.431423
v 1.432101 -0.057689 0.431423
v 0.998564 0.857601 0.431631
v -0.717578 -0.427849 0.431423
v 0.998564 -1.335307 -0.235850
v 1.462887 -0.115284 -0.236916
v -0.759007 -0.478331 0.431423
v 0.083274 1.306801 -0.236916
v -0.809489 -0.519761 0.431423
v 1.462887 -0.115284 0.431423
v 0.998564 0.857601 -0.235850
v -0.867084 -0.550545 0.431423
v 1.481844 -0.177777 -0.236916
v 0.083274 1.306801 0.431423
v -0.929578 -0.569503 0.431423
v 1.481844 -0.177777 0.431423
v 0.133756 1.265372 -0.236916
v -0.434941 -1.123785 0.431423
v -0.994569 -0.575904 0.431423
v 1.488245 -0.242769 -0.236916
v -0.428540 -1.058793 0.431423
v 0.133756 1.265372 0.431423
v 1.488245 -0.242769 0.431423
v -0.409583 -0.996299 0.431423
v 1.481844 -0.307760 -0.236916
v 0.175185 1.214890 -0.236916
v -0.378798 -0.938705 0.431423
v -0.337368 -0.888223 0.431423
v 1.481844 -0.307760 0.431423
v 0.175185 1.214890 0.431423
v -0.286886 -0.846793 0.431423
v 1.462887 -0.370254 -0.236916
v 0.205970 1.157295 -0.236916
v -0.229292 -0.816008 0.431423
v 1.462887 -0.370254 0.431423
v -0.166798 -0.797051 0.431423
v 0.205970 1.157295 0.431423
v 0.224928 1.094801 -0.236916
v 1.432101 -0.427849 -0.236916
v 0.224928 1.094801 0.431423
v 1.432101 -0.427849 0.431423
v 0.231329 1.029810 -0.236916
v 1.390672 -0.478331 -0.236916
v 0.231329 1.029810 0.431423
v 1.390672 -0.478331 0.431423
v 1.340190 -0.519761 -0.236916
v 1.340190 -0.519761 0.431423
v 1.282595 -0.550545 -0.236916
v 1.282595 -0.550545 0.431423
v 1.220101 -0.569503 -0.236916
v 1.220101 -0.569503 0.431423
v 1.155110 -0.575904 -0.236916
v 1.155110 -0.575904 0.431423
v 0.998225 0.090366 0.431423
v 0.998225 0.090366 -0.236916
v -0.428540 0.964818 -0.236916
v -0.428540 0.964818 0.431423
v -0.428540 1.094801 -0.236916
v -0.428540 1.094801 0.431423
v -0.409583 1.157295 -0.236916
v -0.409583 1.157295 0.431423
v -0.378798 1.214890 -0.236916
v -0.378798 1.214890 0.431423
v -0.337368 1.265372 -0.236916
v -0.337368 1.265372 0.431423
v -0.286886 1.306801 -0.236916
v -0.286886 1.306801 0.431423
v -0.229292 1.337586 -0.236916
v -0.229292 1.337586 0.431423
v -0.166798 1.356544 -0.236916
v -0.166798 1.356544 0.431423
v -0.428540 0.857289 0.431423
v -0.428540 0.857289 -0.236916
v 0.231329 0.857697 0.431423
v 0.231329 0.857697 -0.236916
v 0.231329 -1.335310 -0.235850
v 0.231329 -1.335310 0.431423
v -0.434941 -1.335292 -0.235850
v -0.434941 -1.335292 0.431423
v -0.994569 -0.575904 -0.235850
v -0.929578 0.083965 -0.235850
v -0.759007 -0.007207 -0.235850
v -0.809489 0.034223 -0.235850
v -0.867084 0.065008 -0.235850
v -0.929578 -0.569503 -0.235850
v -0.994569 0.090366 -0.235850
v -0.717578 -0.057689 -0.235850
v -0.867084 -0.550545 -0.235850
v -0.686793 -0.115284 -0.235850
v -0.667835 -0.177777 -0.235850
v -0.809489 -0.519761 -0.235850
v -0.661434 -0.242769 -0.235850
v -0.717578 -0.427849 -0.235850
v -0.759007 -0.478331 -0.235850
v -0.686793 -0.370254 -0.235850
v -0.667835 -0.307760 -0.235850
v -0.229292 -0.816008 -0.235850
v -0.166798 -0.797051 -0.235850
v -0.101806 -0.790650 -0.235850
v -0.036815 -0.797051 -0.235850
v 0.083274 -0.846793 -0.235850
v 0.133756 -0.888223 -0.235850
v 0.205970 -0.996299 -0.235850
v 0.175185 -0.938705 -0.235850
v 0.025679 -0.816008 -0.235850
v -0.434941 -1.123785 -0.235850
v -0.428540 -1.058793 -0.235850
v -0.378798 -0.938705 -0.235850
v -0.409583 -0.996299 -0.235850
v -0.286886 -0.846793 -0.235850
v 0.231329 -1.123785 -0.235850
v 0.224928 -1.058793 -0.235850
v -0.337368 -0.888223 -0.235850
v 0.998437 -0.575904 -0.236916
v 0.998437 -0.575904 0.431423
v -1.194197 0.090366 0.431423
v -1.194197 0.090366 -0.235850
v -1.194358 -0.575904 0.431423
v -1.194358 -0.575904 -0.235850
v -0.867084 -0.550545 0.431423
v -0.929578 -0.569503 0.431423
vn 1.0000 -0.0000 -0.0000
vn 1.0000 -0.0004 -0.0000
vn -1.0000 -0.0002 -0.0000
vn 0.0002 -0.0002 1.0000
vn -1.0000 -0.0000 -0.0000
vn 0.0980 0.9952 -0.0000
vn 0.2903 0.9569 -0.0000
vn 0.4714 0.8819 -0.0000
vn 0.6344 0.7730 -0.0000
vn 0.7730 0.6344 -0.0000
vn 0.8819 0.4714 -0.0000
vn 0.9569 0.2903 -0.0000
vn 0.9952 0.0980 -0.0000
vn -0.0000 -0.0000 1.0000
vn -0.9569 0.2903 -0.0000
vn -0.8819 0.4714 -0.0000
vn -0.7730 0.6344 -0.0000
vn -0.6344 0.7730 -0.0000
vn -0.4714 0.8819 -0.0000
vn 0.0004 1.0000 -0.0000
vn -0.2903 0.9569 -0.0000
vn -0.0980 0.9952 -0.0000
vn 0.9952 -0.0980 -0.0000
vn 0.9569 -0.2903 -0.0000
vn 0.8819 -0.4714 -0.0000
vn 0.7730 -0.6344 -0.0000
vn 0.6344 -0.7730 -0.0000
vn 0.4714 -0.8819 -0.0000
vn 0.2903 -0.9569 -0.0000
vn 0.0980 -0.9952 -0.0000
vn -0.0000 1.0000 -0.0000
vn 0.0001 1.0000 -0.0000
vn -0.0980 -0.9952 -0.0000
vn -0.2903 -0.9569 -0.0000
vn -0.4714 -0.8819 -0.0000
vn -0.6344 -0.7730 -0.0000
vn -0.7730 -0.6344 -0.0000
vn -0.8819 -0.4714 -0.0000
vn -0.9569 -0.2903 -0.0000
vn -0.9952 -0.0980 -0.0000
vn -0.9952 0.0980 -0.0000
vn -0.0000 -1.0000 -0.0000
vn -0.0000 -0.0000 -1.0000
vn 1.0000 0.0002 -0.0000
vn -0.0003 -0.0003 1.0000
vn 0.0002 0.0003 1.0000
vn 0.0003 -0.0000 1.0000
vn -0.0002 0.0002 1.0000
vn -0.0011 -0.0003 -1.0000
vn -0.0000 -0.0014 -1.0000
vn -0.0006 -0.0006 -1.0000
vn -0.0005 -0.0018 -1.0000
vn -0.0006 -0.0010 -1.0000
vn -0.0006 -0.0007 -1.0000
vn -0.0006 -0.0005 -1.0000
vn -0.0006 -0.0003 -1.0000
vn -0.0006 -0.0002 -1.0000
vn -0.0006 -0.0001 -1.0000
vn -0.0006 -0.0000 -1.0000
vn -0.0006 0.0002 -1.0000
vn -0.0006 0.0003 -1.0000
vn -0.0006 0.0005 -1.0000
vn -0.0006 0.0007 -1.0000
vn -0.0006 0.0010 -1.0000
vn -0.0006 -0.0018 -1.0000
vn -0.0003 -0.0033 -1.0000
vn -0.0006 -0.0020 -1.0000
vn -0.0007 -0.0014 -1.0000
vn -0.0009 -0.0010 -1.0000
vn -0.0010 -0.0008 -1.0000
vn -0.0010 -0.0006 -1.0000
vn -0.0012 -0.0004 -1.0000
vn -0.0013 -0.0001 -1.0000
vn -0.0003 -0.0011 -1.0000
vn 0.0014 0.0014 -1.0000
vt 0.250000 0.500797
vt 0.250000 1.000000
vt 0.750000 1.000000
vt 0.750000 0.500000
vt 1.000000 1.000000
vt 1.000000 0.500000
vt 0.625000 0.500000
vt 0.625000 0.750000
vt 0.625000 0.250000
vt 1.000000 0.500797
vt 0.625000 0.000000
vt 0.281250 1.000000
vt 0.281250 0.500000
vt 0.968750 1.000000
vt 0.968750 0.500000
vt 0.937500 1.000000
vt 0.937500 0.500000
vt 0.906250 1.000000
vt 0.906250 0.500000
vt 0.875000 1.000000
vt 0.875000 0.500000
vt 0.843750 1.000000
vt 0.843750 0.500000
vt 0.812500 1.000000
vt 0.812500 0.500000
vt 0.781250 1.000000
vt 0.781250 0.500000
vt 0.187500 1.000000
vt 0.218750 1.000000
vt 0.218750 0.500000
vt 0.187500 0.500000
vt 0.156250 1.000000
vt 0.156250 0.500000
vt 0.125000 1.000000
vt 0.125000 0.500000
vt 0.093750 1.000000
vt 0.093750 0.500000
vt 0.062500 1.000000
vt 0.062500 0.500000
vt 0.031250 1.000000
vt 0.031250 0.500000
vt 0.000000 1.000000
vt 0.000000 0.500000
vt 0.718750 1.000000
vt 0.718750 0.500000
vt 0.687500 1.000000
vt 0.687500 0.500000
vt 0.656250 1.000000
vt 0.656250 0.500000
vt 0.625000 1.000000
vt 0.593750 1.000000
vt 0.593750 0.500000
vt 0.562500 1.000000
vt 0.562500 0.500000
vt 0.531250 1.000000
vt 0.531250 0.500000
vt 0.500000 1.000000
vt 0.500000 0.500000
vt 0.968750 0.500797
vt 0.937500 0.500797
vt 0.906250 0.500797
vt 0.875000 0.500797
vt 0.843750 0.500797
vt 0.812500 0.500797
vt 0.781250 0.500797
vt 0.750000 0.500797
vt 0.718750 0.500797
vt 0.687500 0.500797
vt 0.656250 0.500797
vt 0.625000 0.500797
vt 0.593750 0.500797
vt 0.562500 0.500797
vt 0.531250 0.500797
vt 0.500000 0.500797
vt 0.375000 0.500000
vt 0.375000 0.750000
vt 0.750000 0.500797
vt 0.125000 0.750000
vt 1.000000 0.500797
vt 0.968750 0.500797
vt 0.937500 0.500797
vt 0.906250 0.500797
vt 0.875000 0.500797
vt 0.843750 0.500797
vt 0.812500 0.500797
vt 0.781250 0.500797
vt 0.218750 0.500797
vt 0.187500 0.500797
vt 0.156250 0.500797
vt 0.125000 0.500797
vt 0.093750 0.500797
vt 0.062500 0.500797
vt 0.031250 0.500797
vt 0.000000 0.500797
vt 0.375000 0.250000
vt 0.375000 0.000000
vt 0.000000 0.000000
s 0
f 147/1/1 59/2/1 120/2/1 119/1/1
f 85/3/1 115/3/1 116/4/1 83/4/1
f 95/5/2 96/6/2 52/7/2 44/8/2
f 28/9/3 158/10/3 157/5/3 11/11/3
f 4/5/4 113/12/4 11/11/4 157/5/4
f 98/12/5 97/13/5 114/13/5 113/12/5
f 8/6/6 16/5/6 31/14/6 23/15/6
f 23/15/7 31/14/7 40/16/7 36/17/7
f 36/17/8 40/16/8 55/18/8 49/19/8
f 49/19/9 55/18/9 63/20/9 58/21/9
f 58/21/10 63/20/10 71/22/10 67/23/10
f 67/23/11 71/22/11 78/24/11 74/25/11
f 74/25/12 78/24/12 81/26/12 79/27/12
f 79/27/13 81/26/13 85/3/13 83/4/13
f 102/28/14 100/29/14 81/26/14 78/24/14
f 98/12/5 100/29/5 99/30/5 97/13/5
f 98/12/14 113/12/14 115/3/14 85/3/14
f 81/26/14 100/29/14 98/12/14 85/3/14
f 99/30/15 100/29/15 102/28/15 101/31/15
f 101/31/16 102/28/16 104/32/16 103/33/16
f 103/33/17 104/32/17 106/34/17 105/35/17
f 105/35/18 106/34/18 108/36/18 107/37/18
f 107/37/19 108/36/19 110/38/19 109/39/19
f 11/11/20 113/12/20 114/13/20 28/9/20
f 109/39/21 110/38/21 112/40/21 111/41/21
f 111/41/22 112/40/22 16/42/22 8/43/22
f 2/6/6 5/5/6 14/14/6 10/15/6
f 10/15/7 14/14/7 26/16/7 20/17/7
f 20/17/8 26/16/8 32/18/8 29/19/8
f 29/19/9 32/18/9 37/20/9 34/21/9
f 34/21/10 37/20/10 43/22/10 41/23/10
f 41/23/11 43/22/11 51/24/11 47/25/11
f 47/25/12 51/24/12 57/26/12 54/27/12
f 54/27/13 57/26/13 64/3/13 61/4/13
f 61/4/23 64/3/23 70/44/23 66/45/23
f 66/45/24 70/44/24 76/46/24 73/47/24
f 73/47/25 76/46/25 82/48/25 80/49/25
f 80/49/26 82/48/26 86/50/26 84/7/26
f 84/7/27 86/50/27 88/51/27 87/52/27
f 87/52/28 88/51/28 90/53/28 89/54/28
f 89/54/29 90/53/29 92/55/29 91/56/29
f 91/56/30 92/55/30 94/57/30 93/58/30
f 2/6/31 96/6/31 95/5/31 5/5/31
f 115/3/32 44/8/32 52/7/32 116/4/32
f 156/57/14 94/57/14 5/5/14 95/5/14
f 7/14/33 4/5/33 127/10/33 122/59/33
f 13/16/34 7/14/34 122/59/34 125/60/34
f 17/18/35 13/16/35 125/60/35 124/61/35
f 22/20/36 17/18/36 124/61/36 123/62/36
f 25/22/37 22/20/37 123/62/37 128/63/37
f 30/24/38 25/22/38 128/63/38 130/64/38
f 33/26/39 30/24/39 130/64/39 131/65/39
f 35/3/40 33/26/40 131/65/40 133/66/40
f 39/44/41 35/3/41 133/66/41 137/67/41
f 42/46/15 39/44/15 137/67/15 136/68/15
f 45/48/16 42/46/16 136/68/16 134/69/16
f 48/50/17 45/48/17 134/69/17 135/70/17
f 132/71/18 50/51/18 48/50/18 135/70/18
f 129/72/19 161/53/19 50/51/19 132/71/19
f 126/73/21 162/55/21 161/53/21 129/72/21
f 121/74/22 60/57/22 56/55/22 126/73/22
f 46/75/42 38/76/42 118/3/42 117/77/42
f 4/5/42 157/5/42 158/10/42 127/10/42
f 152/77/5 117/77/5 118/3/5 27/3/5
f 1/78/42 19/35/42 119/1/42 120/2/42
f 6/14/33 3/5/33 140/79/33 141/80/33
f 9/16/34 6/14/34 141/80/34 146/81/34
f 12/18/35 9/16/35 146/81/35 142/82/35
f 15/20/36 12/18/36 142/82/36 143/83/36
f 18/22/37 15/20/37 143/83/37 145/84/37
f 21/24/38 18/22/38 145/84/38 144/85/38
f 24/26/39 21/24/39 144/85/39 153/86/39
f 27/3/40 24/26/40 153/86/40 152/77/40
f 4/5/14 7/14/14 115/3/14 113/12/14
f 62/29/23 59/2/23 147/1/23 148/87/23
f 65/28/24 62/29/24 148/87/24 150/88/24
f 68/32/25 65/28/25 150/88/25 149/89/25
f 69/34/26 68/32/26 149/89/26 154/90/26
f 72/36/27 69/34/27 154/90/27 151/91/27
f 75/38/28 72/36/28 151/91/28 138/92/28
f 77/40/29 75/38/29 138/92/29 139/93/29
f 3/42/30 77/40/30 139/93/30 140/94/30
f 102/28/14 78/24/14 71/22/14 104/32/14
f 63/20/14 106/34/14 104/32/14 71/22/14
f 55/18/14 108/36/14 106/34/14 63/20/14
f 40/16/14 110/38/14 108/36/14 55/18/14
f 31/14/14 112/40/14 110/38/14 40/16/14
f 31/14/14 16/42/14 112/40/14
f 116/4/43 114/13/43 97/13/43 83/4/43
f 79/27/43 83/4/43 97/13/43 99/30/43
f 74/25/43 79/27/43 99/30/43 101/31/43
f 67/23/43 74/25/43 101/31/43 103/33/43
f 58/21/43 67/23/43 103/33/43 105/35/43
f 49/19/43 58/21/43 105/35/43 107/37/43
f 36/17/43 49/19/43 107/37/43 109/39/43
f 23/15/43 36/17/43 109/39/43 111/41/43
f 23/15/43 111/41/43 8/43/43
f 94/57/42 156/57/42 155/58/42 93/58/42
f 156/57/44 38/76/44 46/75/44 155/58/44
f 94/57/14 92/55/14 14/14/14 5/5/14
f 14/14/14 92/55/14 90/53/14 26/16/14
f 26/16/14 90/53/14 88/51/14 32/18/14
f 32/18/14 88/51/14 86/50/14 37/20/14
f 37/20/14 86/50/14 82/48/14 43/22/14
f 43/22/14 82/48/14 76/46/14 51/24/14
f 51/24/14 76/46/14 70/44/14 57/26/14
f 64/3/14 57/26/14 70/44/14
f 96/6/43 2/6/43 93/58/43 155/58/43
f 2/6/43 10/15/43 91/56/43 93/58/43
f 10/15/43 20/17/43 89/54/43 91/56/43
f 20/17/43 29/19/43 87/52/43 89/54/43
f 29/19/43 34/21/43 84/7/43 87/52/43
f 34/21/43 41/23/43 80/49/43 84/7/43
f 41/23/43 47/25/43 73/47/43 80/49/43
f 47/25/43 54/27/43 66/45/43 73/47/43
f 61/4/43 66/45/43 54/27/43
f 121/74/31 160/74/31 159/57/31 60/57/31
f 19/95/5 1/96/5 159/57/5 160/74/5
f 44/8/45 115/3/45 95/5/45
f 7/14/14 95/5/14 115/3/14
f 13/16/14 95/5/14 7/14/14
f 17/18/14 95/5/14 13/16/14
f 22/20/14 95/5/14 17/18/14
f 25/22/14 95/5/14 22/20/14
f 30/24/14 95/5/14 25/22/14
f 33/26/14 95/5/14 30/24/14
f 156/57/14 95/5/14 33/26/14 35/3/14
f 35/3/14 39/44/14 156/57/14
f 42/46/14 156/57/14 39/44/14
f 45/48/14 156/57/14 42/46/14
f 48/50/14 156/57/14 45/48/14
f 50/51/14 156/57/14 48/50/14
f 53/53/14 156/57/14 50/51/14
f 161/97/14 53/97/14 162/97/14 56/97/14 77/97/14
f 77/97/14 3/42/14 156/57/14 53/97/14 161/97/14
f 6/14/14 156/57/14 3/42/14
f 9/16/14 156/57/14 6/14/14
f 12/18/14 156/57/14 9/16/14
f 77/40/14 56/97/14 162/97/14 60/57/14 75/38/14
f 72/36/14 75/38/14 60/57/14 159/57/14
f 72/36/14 159/57/14 69/34/14
f 69/34/14 159/57/14 68/32/14
f 68/32/14 159/57/14 65/28/14
f 65/28/14 159/57/14 62/29/14
f 62/29/46 159/57/46 1/96/46 59/2/46
f 120/2/47 59/2/47 1/78/47
f 15/20/14 156/57/14 12/18/14
f 18/22/14 156/57/14 15/20/14
f 21/24/14 156/57/14 18/22/14
f 24/26/14 156/57/14 21/24/14
f 27/3/14 156/57/14 24/26/14
f 38/76/48 156/57/48 27/3/48 118/3/48
f 127/10/49 158/10/49 28/9/49 114/13/49
f 127/10/50 114/13/50 116/4/50 122/59/50
f 96/97/51 122/59/51 116/4/51
f 122/59/52 96/97/52 125/60/52
f 125/60/53 96/97/53 124/61/53
f 124/61/54 96/97/54 123/62/54
f 128/63/55 123/62/55 96/97/55
f 130/64/56 128/63/56 96/97/56
f 131/65/57 130/64/57 96/97/57
f 133/66/58 131/65/58 96/97/58
f 137/67/59 133/66/59 96/6/59 155/58/59
f 137/67/60 155/58/60 136/68/60
f 136/68/61 155/58/61 134/69/61
f 135/70/62 134/69/62 155/58/62
f 135/70/63 155/58/63 132/71/63
f 129/72/64 132/71/64 155/97/64
f 129/72/43 139/93/43 138/92/43 126/73/43
f 139/93/65 129/72/65 155/97/65 140/94/65
f 140/94/66 155/97/66 141/80/66
f 146/81/67 141/80/67 155/97/67
f 146/81/68 155/97/68 142/82/68
f 143/83/69 142/82/69 155/97/69
f 145/84/70 143/83/70 155/97/70
f 145/84/71 155/97/71 144/85/71
f 153/86/72 144/85/72 155/97/72
f 153/86/73 155/97/73 152/77/73
f 46/75/74 117/77/74 152/77/74 155/58/74
f 119/1/43 19/35/43 147/1/43
f 148/87/43 147/1/43 19/95/43 160/74/43
f 126/73/43 138/92/43 121/74/43
f 138/92/43 151/91/43 160/74/43 121/74/43
f 154/90/43 160/74/43 151/91/43
f 154/90/43 149/89/43 160/74/43
f 150/88/43 160/74/43 149/89/43
f 150/88/43 148/87/43 160/74/43
f 52/7/75 96/6/75 116/4/75
