# Blender 4.3.2
# www.blender.org
mtllib daemonset.mtl
o daemonset
v -1.445296 -1.000731 1.427833
v -1.444989 -1.225128 1.425690
v -1.445296 0.471685 1.427833
v -1.444989 -1.045407 1.425690
v -1.444989 -1.225128 -0.572877
v -0.556008 1.265151 0.567818
v -1.444989 -1.045407 -0.572877
v -0.999999 0.864593 0.997331
v 0.553613 -1.225128 1.425690
v -0.556008 1.265151 -1.432180
v 0.553613 -1.045407 1.425690
v -1.445296 -1.000731 -0.572166
v 0.553613 -1.225128 -0.572877
v 1.443991 1.265151 0.567818
v 0.553613 -1.045407 -0.572877
v 1.443991 1.265151 -1.432180
v -0.999999 0.864593 -1.002667
v -1.445296 0.471685 -0.572166
v -0.352295 1.078540 -1.432180
v 0.999999 0.864593 0.997331
v 1.239561 1.078540 -1.432180
v 1.239561 1.078540 0.567818
v 0.999999 0.864593 -1.002667
v 0.554703 -1.000731 1.427833
v -0.796286 0.677982 -1.002667
v -0.351578 1.078540 0.567818
v 0.554703 0.471685 1.427833
v 0.554703 -1.000731 -0.572166
v -0.352955 1.265151 0.314723
v -0.352955 1.265151 -1.177731
v 0.795570 0.677982 -1.002667
v 0.554703 0.471685 -0.572166
v 1.240938 1.265151 0.314723
v 1.240938 1.265151 -1.177731
v 0.795570 0.677982 0.997331
v -0.795570 0.677982 0.997331
v -0.796946 0.864593 0.744236
v -0.556008 1.078615 -1.177731
v 1.443991 1.078515 -1.432180
v -0.796946 0.864593 -0.748218
v -0.556008 1.079406 0.314723
v 0.796946 0.864593 0.744236
v 0.796946 0.864593 -0.748218
v 1.443991 1.079113 0.314723
v -0.999999 0.678057 -0.748218
v 0.999999 0.677957 -1.002667
v 1.443991 1.079406 -1.177731
v -0.352039 1.079118 -1.177731
v -0.999999 0.678849 0.744236
v 0.999999 0.678556 0.744236
v -0.352039 1.079118 0.314723
v 0.999999 0.678849 -0.748218
v 1.240022 1.079118 -1.177731
v -0.796031 0.678560 -0.748218
v 1.240022 1.079118 0.314723
v -0.796031 0.678560 0.744236
v 0.796031 0.678560 -0.748218
v -0.556008 1.265151 -1.177726
v 0.796031 0.678560 0.744236
v 1.240913 1.265151 -1.432180
v -0.999999 0.864593 -0.748212
v 1.443991 1.265151 -1.177728
v 0.796921 0.864593 -1.002667
v -0.352969 1.265151 -1.432180
v 0.999999 0.864593 -0.748214
v -0.556008 1.078542 -1.432180
v -0.796960 0.864593 -1.002667
v -0.556008 1.078552 0.567818
v -0.999999 0.677984 -1.002667
v -0.556008 -0.020722 -1.432180
v -0.999999 0.677995 0.997331
v -0.999999 -0.421280 -1.002667
v -0.556008 -0.020904 -1.174336
v -0.999999 -0.421462 -0.744822
v -0.351578 -0.020722 -1.432180
v -0.352267 -0.024458 -1.175717
v -0.795570 -0.421280 -1.002667
v -0.796258 -0.425015 -0.746203
v 1.443991 -0.207265 0.312132
v 1.443991 -0.021087 0.312132
v 0.999999 -0.607822 0.741645
v 0.999999 -0.421644 0.741645
v 1.238708 -0.020218 0.567818
v 1.238708 -0.207265 0.567818
v 0.794716 -0.420775 0.997331
v 0.794716 -0.607822 0.997331
v 1.239823 -0.207265 0.313427
v 0.795831 -0.607822 0.742941
v 1.239266 -0.020870 0.314075
v 1.444106 -0.207265 -1.432207
v 0.795274 -0.421427 0.743588
v 1.000114 -0.607822 -1.002693
v 1.443991 -0.021087 -1.173702
v 1.443991 -0.207265 -1.173702
v 0.999999 -0.421644 -0.744188
v 0.999999 -0.607822 -0.744188
v 1.240938 -0.207265 -1.173702
v 0.796946 -0.607822 -0.744188
v 1.240938 -0.021087 -1.173702
v -0.552668 -0.203925 -1.173702
v 0.796946 -0.421644 -0.744188
v 1.240938 -0.021087 -1.431178
v -0.996659 -0.604482 -0.744188
v -0.352955 -0.207265 -1.173702
v 0.796946 -0.421644 -1.001665
v -0.796946 -0.607822 -0.744188
v -0.999999 -0.607864 -1.002667
v -0.556008 -0.207307 -1.432180
v 0.796244 0.864593 0.997331
v 1.240235 1.265151 0.567818
v 1.443991 1.265151 0.314661
v 0.999999 0.864593 0.744175
v -0.556008 1.265151 0.314721
v -0.999999 0.864593 0.744234
v 1.443991 1.079094 0.567818
v 0.999999 0.678536 0.997331
v -0.796946 0.864593 0.997331
v -0.352955 1.265151 0.567818
v 1.443991 -0.207265 0.567917
v 0.999999 -0.607822 0.997430
v -0.999999 0.471685 0.997331
v -0.999999 0.471685 0.744236
v -0.795570 0.471685 0.997331
v -0.795944 0.471685 0.744236
v -0.999999 -0.421483 -0.572166
v -0.796338 -0.424621 -0.572166
v -0.796946 -0.607822 -0.572166
v -0.996989 -0.604812 -0.572166
v -0.973578 -0.604868 -0.572166
v -0.999999 -0.421465 -0.572166
v 0.554703 -0.420775 0.997331
v 0.554703 -0.421328 0.743686
v 0.554703 -0.607822 0.743137
v 0.554703 -0.607822 0.997331
v 0.554703 -0.421328 0.743686
v 0.554703 -0.420775 0.997331
v 0.554703 -0.421460 0.743686
v 0.554703 -0.421460 0.743686
v 0.554703 -0.607822 0.743137
v 0.554703 -0.421328 0.743686
v 0.554703 -0.607822 0.997331
v -0.999999 -0.421483 -0.572166
v -0.999999 -0.421466 -0.572166
v -0.999999 -0.421483 -0.572166
v -0.999999 -0.421465 -0.572166
v -0.796338 -0.424621 -0.572166
v -0.973578 -0.604868 -0.572166
v -0.996989 -0.604812 -0.572166
v -0.999999 -0.421483 -0.572166
v -0.796946 -0.607822 -0.572166
v 0.554703 -0.420775 0.997331
v 0.554703 -0.607822 0.997331
v 0.554703 -0.421328 0.743686
v 0.554703 -0.421460 0.743686
v 0.554703 -0.421329 0.743686
v 0.554703 -0.421460 0.743686
v 0.554703 -0.607822 0.743137
v -0.999999 0.471685 0.744236
v -0.795944 0.471685 0.744236
v -0.999999 0.471685 0.997331
v -0.795570 0.471685 0.997331
v -0.554018 -0.129971 -0.572166
v -0.556008 -0.020978 -0.572166
v -0.556008 -0.020916 -0.572166
v -0.352545 -0.023093 -0.572166
v -0.434771 -0.023093 -0.572166
v -0.553926 -0.165204 -0.572166
v -0.556007 -0.020978 -0.572166
v -0.553821 -0.205079 -0.572166
v -0.352955 -0.207265 -0.572166
v 0.554703 -0.207265 0.313985
v 0.554703 -0.020218 0.567818
v 0.554703 -0.207265 0.567818
v 0.554703 -0.020589 0.314354
v 0.554703 -0.020963 0.314354
v -0.556008 0.471685 0.314723
v -0.351785 0.471685 0.314723
v -0.556008 0.471685 0.567818
v -0.351578 0.471685 0.567818
v -0.445296 -1.000731 1.427833
v -0.445296 0.471685 1.427833
vn -1.0000 -0.0000 -0.0000
vn -0.0000 -0.0000 -1.0000
vn -0.0000 -0.0000 1.0000
vn -0.0000 1.0000 -0.0000
vn 1.0000 -0.0000 -0.0000
vn -0.0000 -1.0000 -0.0000
vn -1.0000 0.0049 -0.0000
vn 1.0000 -0.0000 0.0004
vn -1.0000 -0.0015 -0.0009
vn 0.0005 -1.0000 0.0003
vn 1.0000 0.0002 0.0008
vn 0.0005 1.0000 -0.0001
vn 0.0034 0.0025 1.0000
vn -0.0059 -0.0009 -1.0000
vn -0.0000 -1.0000 0.0023
vn -0.0000 -1.0000 -0.0023
vn -0.0000 0.0037 1.0000
vn 1.0000 -0.0000 0.0002
vn -0.0010 1.0000 0.0073
vn -1.0000 -0.0010 0.0009
vn 0.0007 -1.0000 -0.0001
vn 1.0000 0.0049 -0.0000
vn 1.0000 0.0002 -0.0016
vn -0.0005 -0.0000 1.0000
vn -0.0002 -0.0000 1.0000
vn -0.0048 0.0015 -1.0000
vn -1.0000 0.0007 -0.0020
vn -0.9999 -0.0090 0.0065
vn -0.0006 0.0055 1.0000
vn -0.0000 -1.0000 0.0001
vn 0.0003 0.0028 -1.0000
vn -1.0000 0.0027 -0.0000
vn 1.0000 -0.0035 0.0002
vn -0.0159 -0.9999 -0.0001
vn -0.0214 -0.9998 0.0008
vn -0.0167 -0.9998 0.0133
vn -0.9998 -0.0173 -0.0010
vn 0.9998 0.0213 -0.0000
vn -0.0001 1.0000 -0.0026
vn -0.0000 1.0000 -0.0028
vn 1.0000 0.0005 -0.0000
vn -0.0006 0.0032 -1.0000
vn -0.5904 0.0003 -0.8071
vn -0.0000 -0.0030 1.0000
vn -0.0087 -0.9999 -0.0076
vn 1.0000 0.0002 -0.0013
vn 0.0164 0.9999 -0.0011
vn 0.0139 0.9999 -0.0004
vn 1.0000 -0.0030 0.0002
vn -0.0138 -0.9999 -0.0010
vn -0.9999 -0.0150 -0.0004
vn 0.0002 1.0000 -0.0028
vn -0.0006 0.0027 -1.0000
vn -0.2990 -0.0000 -0.9543
vn 0.6208 -0.7840 -0.0000
vt 0.375000 0.000000
vt 0.625000 0.000000
vt 0.625000 0.250000
vt 0.375000 0.250000
vt 0.473350 0.305662
vt 0.473350 0.305662
vt 0.473350 0.305662
vt 0.442223 0.306038
vt 0.473353 0.305662
vt 0.516863 0.361421
vt 0.510093 0.361434
vt 0.472817 0.331120
vt 0.541362 0.361161
vt 0.541351 0.361161
vt 0.541351 0.361161
vt 0.000000 0.000000
vt 0.531123 0.151160
vt 0.025565 0.153389
vt 0.473376 0.664482
vt 0.473354 0.664482
vt 0.625000 0.750000
vt 0.375000 0.750000
vt 0.441712 0.696187
vt 0.473470 0.696187
vt 0.509722 0.642498
vt 0.541480 0.642498
vt 0.473376 0.664482
vt 0.053764 0.315461
vt 0.000000 0.000003
vt 0.625000 0.500000
vt 0.375000 0.875000
vt 0.625000 0.875000
vt 0.625000 1.000000
vt 0.375000 1.000000
vt 0.375000 0.500000
vt 0.875000 0.500000
vt 0.875000 0.750000
vt 0.819338 0.696187
vt 0.819338 0.664550
vt 0.561479 0.250000
vt 0.593316 0.250000
vt 0.593315 0.275554
vt 0.561479 0.275554
vt 0.584528 0.750215
vt 0.613046 0.750000
vt 0.650382 0.531806
vt 0.584528 0.499785
vt 0.625000 0.612566
vt 0.507222 0.968969
vt 0.507223 0.789127
vt 0.593463 0.531806
vt 0.625000 0.531807
vt 0.625000 0.718355
vt 0.593463 0.718363
vt 0.623721 0.789127
vt 0.625000 0.723713
vt 0.623721 0.968969
vt 0.625000 0.205767
vt 0.625000 0.544233
vt 0.849618 0.531806
vt 0.582337 0.233348
vt 0.625000 0.233348
vt 0.582337 0.205767
vt 0.593318 0.000000
vt 0.498120 0.000000
vt 0.625000 0.043997
vt 0.613046 1.000000
vt 0.875000 0.718363
vt 0.849618 0.718363
vt 0.875000 0.531807
vt 0.625000 0.516652
vt 0.625000 0.275380
vt 0.625000 0.474615
vt 0.650382 0.718363
vt 0.375197 0.787462
vt 0.593318 1.000000
vt 0.593315 0.974446
vt 0.625000 0.974618
vt 0.593315 0.775554
vt 0.650382 0.750000
vt 0.582207 0.287368
vt 0.624803 0.287368
vt 0.624640 0.264850
vt 0.582207 0.264850
vt 0.593315 0.474446
vt 0.593311 0.500000
vt 0.625000 0.706003
vt 0.625000 0.733436
vt 0.625000 0.016564
vt 0.625000 0.031637
vt 0.625000 0.218193
vt 0.593463 0.218194
vt 0.593463 0.031637
vt 0.849618 0.750000
vt 0.584528 0.999785
vt 0.584528 0.250215
vt 0.530909 0.168574
vt 0.406758 0.775660
vt 0.593410 0.750000
vt 0.505387 0.929196
vt 0.498120 0.839550
vt 0.625000 0.775557
vt 0.593194 0.218194
vt 0.561479 0.218194
vt 0.849620 0.500000
vt 0.593315 0.275375
vt 0.650385 0.500000
vt 0.360150 0.749566
vt 0.337783 0.749566
vt 0.044725 0.115573
vt 0.350154 0.708387
vt 0.375000 0.702885
vt 0.016715 0.079679
vt 0.012347 0.074083
vt 0.012347 0.074083
vt 0.018866 0.110693
vt 0.587881 0.973667
vt 0.529400 0.669793
vt 0.509722 0.610769
vt 0.313290 0.000000
vt 0.375000 0.729424
vt 0.348728 0.409785
vt 0.348845 0.412499
vt 0.334660 0.841334
vt 0.313290 0.528030
vt 0.347735 0.708348
vt 0.285223 0.721954
vt 0.288834 0.721964
vt 0.279906 0.721938
vt 0.156396 0.404143
vt 0.043176 0.259056
vt 0.033781 0.202685
vt 0.521890 0.982317
vt 0.355325 0.449555
vt 0.738285 0.642498
vt 0.763839 0.642498
vt 0.509722 0.386543
vt 0.540992 0.376316
vt 0.002582 0.005260
vt 0.125000 0.500000
vt 0.125000 0.750000
s 0
f 1/1/1 3/2/1 18/3/1 12/4/1
f 144/5/2 142/6/2 149/7/2 148/8/2 12/4/2 18/3/2 145/9/2 143/9/2
f 143/9/2 149/7/2 142/6/2 144/5/2
f 145/9/2 167/10/2 169/11/2 146/12/2 149/7/2 143/9/2
f 164/13/2 168/14/2 163/15/2 18/16/2 166/16/2
f 123/17/3 181/16/3 161/17/3
f 168/14/4 164/13/4 162/18/4
f 155/19/5 154/20/5 156/20/5
f 27/21/5 24/22/5 152/23/5 151/24/5
f 173/25/5 172/26/5 27/21/5 151/24/5 154/20/5 155/19/5 153/27/5
f 172/28/5 174/29/5 32/30/5 27/16/5
f 180/31/3 181/32/3 3/33/3 1/34/3
f 180/31/6 28/35/6 24/22/6
f 3/16/4 181/16/4 161/16/4 160/16/4
f 161/16/4 181/16/4 27/16/4 179/16/4
f 18/36/4 3/37/4 160/38/4 158/39/4
f 72/40/2 69/41/2 25/42/2 77/43/2
f 59/44/7 42/45/7 43/46/7 57/47/7
f 92/16/8 95/48/8 96/48/8
f 81/49/5 96/48/5 95/48/5 82/50/5
f 52/51/5 65/52/5 112/53/5 50/54/5
f 91/55/9 101/56/9 98/56/9 88/57/9
f 54/16/10 56/16/10 49/16/10 45/16/10
f 54/58/3 57/59/3 43/46/3 40/60/3
f 77/61/11 25/62/11 54/58/11 78/63/11
f 71/64/1 49/16/1 158/16/1 160/65/1
f 122/16/4 121/65/4 160/65/4 158/16/4
f 42/45/2 59/44/2 56/66/2 37/67/2
f 114/68/4 37/69/4 40/60/4 61/70/4
f 31/71/2 25/62/2 67/72/2 63/73/2
f 43/46/4 42/74/4 112/53/4 65/52/4
f 95/48/12 101/56/12 91/75/12 82/50/12
f 71/76/3 36/77/3 117/78/3 8/33/3
f 36/77/3 35/79/3 109/80/3 117/78/3
f 78/81/13 54/82/13 45/83/13 74/84/13
f 31/85/14 92/16/14 105/16/14
f 31/85/2 46/86/2 92/16/2
f 54/58/15 25/62/15 31/71/15 57/59/15
f 56/66/16 59/87/16 35/88/16 36/89/16
f 57/16/17 101/56/17 95/48/17 52/16/17
f 95/48/18 92/16/18 46/86/18 52/16/18
f 101/16/19 105/16/19 77/61/19 78/63/19
f 114/90/1 61/91/1 45/92/1 49/93/1
f 37/69/4 117/94/4 109/80/4 42/74/4
f 31/71/20 105/16/20 101/16/20 57/59/20
f 63/73/4 67/72/4 40/60/4 43/46/4
f 81/49/6 88/57/6 98/56/6 96/48/6
f 59/16/21 57/16/21 52/16/21 50/16/21
f 56/95/22 54/96/22 40/60/22 37/67/22
f 159/97/23 56/66/23 36/89/23 161/17/23
f 161/17/2 123/17/2 124/97/2 159/97/2
f 86/16/24 120/16/24 85/98/24
f 116/99/25 35/88/25 85/98/25 120/16/25
f 161/100/3 36/77/3 71/76/3 160/101/3
f 160/101/3 121/101/3 123/100/3 161/100/3
f 158/16/2 49/16/2 56/16/2 159/16/2
f 124/16/2 122/16/2 158/16/2 159/16/2
f 112/53/5 20/21/5 116/99/5 50/54/5
f 112/53/4 42/74/4 109/80/4 20/21/4
f 35/79/3 116/99/3 20/21/3 109/102/3
f 37/69/4 114/68/4 8/37/4 117/94/4
f 71/64/1 8/2/1 114/90/1 49/93/1
f 45/92/1 61/91/1 17/3/1 69/41/1
f 45/103/1 69/41/1 72/40/1 74/104/1
f 67/105/4 17/36/4 61/70/4 40/60/4
f 67/72/2 25/106/2 69/41/2 17/3/2
f 65/52/5 52/51/5 46/86/5 23/30/5
f 63/107/4 43/46/4 65/52/4 23/30/4
f 46/86/2 31/85/2 63/73/2 23/30/2
f 82/108/26 91/109/26 59/16/26 50/16/26
f 59/87/27 91/16/27 85/16/27 35/88/27
f 107/16/28 103/16/28 74/16/28 72/16/28
f 106/16/29 98/16/29 101/16/29 78/16/29
f 98/56/6 92/16/6 96/48/6
f 98/56/30 106/16/30 107/16/30 92/16/30
f 105/16/31 92/16/31 107/16/31 77/61/31
f 72/16/2 77/16/2 107/16/2
f 127/110/32 126/111/32 146/111/32 150/110/32
f 146/111/33 150/110/33 106/16/33 78/112/33
f 147/113/34 148/114/34 103/16/34 106/16/34 150/110/34
f 147/113/35 150/110/35 127/110/35 129/113/35 128/114/35 148/114/35
f 103/16/36 107/16/36 106/16/36
f 148/115/37 143/16/37 145/16/37 74/16/37 103/16/37
f 143/16/38 145/16/38 130/16/38 128/115/38 148/115/38
f 86/16/6 88/16/6 81/16/6 120/16/6
f 116/99/5 120/16/5 82/108/5 50/16/5
f 81/16/5 82/108/5 120/16/5
f 154/16/39 151/116/39 85/16/39 91/16/39 156/16/39
f 154/16/40 156/16/40 138/16/40 137/16/40 136/116/40 151/116/40
f 135/16/5 137/16/5 138/16/5
f 138/16/41 132/16/41 136/116/41
f 136/116/1 135/16/1 138/16/1
f 157/117/42 155/118/42 153/118/42 91/55/42 88/57/42
f 153/118/5 135/118/5 155/118/5 138/16/5 137/16/5 133/117/5 171/119/5 173/25/5
f 156/16/43 137/16/43 135/16/43 155/16/43
f 86/16/3 85/16/3 151/116/3 152/16/3
f 151/116/4 136/116/4 141/16/4 152/16/4
f 131/116/3 134/16/3 141/16/3 136/116/3
f 88/57/6 86/16/6 152/16/6 157/117/6
f 141/16/5 24/22/5 28/35/5 133/16/5
f 155/118/44 153/118/44 140/118/44 132/118/44 133/117/44 139/117/44 157/117/44
f 70/40/2 66/41/2 19/42/2 75/43/2
f 55/44/7 33/45/7 34/46/7 53/47/7
f 90/16/8 93/48/8 94/48/8
f 79/49/5 94/48/5 93/48/5 80/50/5
f 47/51/5 62/52/5 111/53/5 44/54/5
f 89/55/9 99/56/9 97/56/9 87/57/9
f 48/16/10 51/16/10 41/16/10 38/16/10
f 48/58/3 53/59/3 34/46/3 30/60/3
f 75/61/11 19/62/11 48/58/11 76/63/11
f 178/120/1 68/64/1 41/16/1 176/16/1
f 33/45/2 55/44/2 51/66/2 29/67/2
f 113/68/4 29/69/4 30/60/4 58/70/4
f 21/71/2 19/62/2 64/72/2 60/73/2
f 34/46/4 33/74/4 111/53/4 62/52/4
f 93/48/12 99/56/12 89/75/12 80/50/12
f 68/76/3 26/77/3 118/78/3 6/33/3
f 26/77/3 22/79/3 110/80/3 118/78/3
f 76/81/13 48/82/13 38/83/13 73/84/13
f 21/85/14 90/16/14 102/16/14
f 21/85/2 39/86/2 90/16/2
f 48/58/15 19/62/15 21/71/15 53/59/15
f 51/66/16 55/87/16 22/88/16 26/89/16
f 53/16/17 99/56/17 93/48/17 47/16/17
f 93/48/18 90/16/18 39/86/18 47/16/18
f 99/16/19 102/16/19 75/61/19 76/63/19
f 113/90/1 58/91/1 38/92/1 41/93/1
f 29/69/4 118/94/4 110/80/4 33/74/4
f 21/71/20 102/16/20 99/16/20 53/59/20
f 60/73/4 64/72/4 30/60/4 34/46/4
f 79/49/6 87/57/6 97/56/6 94/48/6
f 55/16/21 53/16/21 47/16/21 44/16/21
f 51/95/22 48/96/22 30/60/22 29/67/22
f 70/121/45 75/121/45 76/112/45 73/112/45
f 177/122/46 51/66/46 26/89/46 179/123/46
f 84/16/24 119/16/24 83/98/24
f 115/99/25 22/88/25 83/98/25 119/16/25
f 179/124/3 26/77/3 68/76/3 178/125/3
f 94/48/2 97/56/2 99/56/2 93/48/2
f 176/16/2 41/16/2 51/16/2 177/16/2
f 146/111/47 78/112/47 74/112/47 125/126/47 126/111/47
f 74/112/1 144/126/1 125/126/1
f 166/127/48 165/128/48 76/112/48 73/112/48 163/129/48
f 111/53/5 14/21/5 115/99/5 44/54/5
f 111/53/4 33/74/4 110/80/4 14/21/4
f 22/79/3 115/99/3 14/21/3 110/102/3
f 29/69/4 113/68/4 6/37/4 118/94/4
f 68/64/1 6/2/1 113/90/1 41/93/1
f 38/92/1 58/91/1 10/3/1 66/41/1
f 38/103/1 66/41/1 70/40/1 73/104/1
f 64/105/4 10/36/4 58/70/4 30/60/4
f 64/72/2 19/106/2 66/41/2 10/3/2
f 62/52/5 47/51/5 39/86/5 16/30/5
f 60/107/4 34/46/4 62/52/4 16/30/4
f 39/86/2 21/85/2 60/73/2 16/30/2
f 80/108/26 89/109/26 55/16/26 44/16/26
f 55/87/27 89/16/27 83/16/27 22/88/27
f 108/16/28 100/16/28 73/16/28 70/16/28
f 104/16/29 97/16/29 99/16/29 76/16/29
f 97/56/6 90/16/6 94/48/6
f 97/56/30 104/16/30 108/16/30 90/16/30
f 102/16/31 90/16/31 108/16/31 75/61/31
f 70/16/2 75/16/2 108/16/2
f 165/128/49 170/130/49 104/16/49 76/112/49
f 169/131/50 100/16/50 104/16/50 170/130/50
f 100/16/36 108/16/36 104/16/36
f 162/18/51 164/16/51 73/16/51 100/16/51 169/131/51 167/132/51
f 84/16/6 87/16/6 79/16/6 119/16/6
f 115/99/5 119/16/5 80/108/5 44/16/5
f 79/16/5 80/108/5 119/16/5
f 174/29/52 172/28/52 83/16/52 89/16/52 175/16/52
f 87/57/53 171/133/53 174/134/53 89/55/53
f 84/16/3 83/16/3 172/28/3 173/16/3
f 87/57/6 84/16/6 173/16/6 171/133/6
f 24/22/3 27/21/3 181/32/3 180/31/3
f 124/97/4 161/17/4 179/135/4 178/136/4
f 18/16/4 176/16/4 177/16/4 32/16/4
f 133/117/6 139/117/6 157/117/6 152/16/6 141/16/6 134/16/6
f 171/119/5 157/117/5 28/35/5
f 32/30/5 174/134/5 171/133/5 28/35/5
f 28/35/2 170/137/2 165/16/2 32/30/2
f 166/16/2 18/16/2 32/16/2 165/16/2
f 168/14/2 163/15/2 164/13/2 166/138/2
f 163/15/2 162/16/2 18/16/2 164/13/2 168/14/2
f 142/6/54 125/7/54 143/139/54 145/16/54 149/7/54
f 149/7/2 145/16/2 143/139/2 18/16/2 162/16/2 167/10/2
f 169/131/2 170/130/2 28/35/2 146/111/2
f 146/111/2 28/16/2 127/110/2
f 150/110/2 28/16/2 147/16/2
f 128/114/2 129/16/2 28/16/2 12/4/2
f 12/4/55 148/114/55 128/114/55
f 128/114/1 147/16/1 129/16/1
f 1/34/6 12/4/6 28/35/6 180/31/6
f 27/16/4 32/16/4 177/122/4 179/16/4
f 159/16/4 178/120/4 176/16/4
f 176/16/4 18/16/4 158/16/4 159/16/4
f 2/1/1 4/2/1 7/3/1 5/4/1
f 5/4/2 7/3/2 15/30/2 13/35/2
f 13/35/5 15/30/5 11/21/5 9/22/5
f 9/22/3 11/21/3 4/33/3 2/34/3
f 5/140/6 13/35/6 9/22/6 2/141/6
f 15/30/4 7/36/4 4/37/4 11/21/4
