# Blender 4.3.2
# www.blender.org
mtllib deploy.mtl
o deployment
v 0.000000 1.433309 1.260323
v 0.245877 1.409093 1.260324
v 0.482304 1.337373 1.260324
v 0.700198 1.220907 1.260324
v 0.891182 1.064169 1.260324
v 1.047920 0.873184 1.260324
v 1.164386 0.655292 1.260324
v 1.236105 0.418864 1.260324
v 1.241920 0.117780 1.260324
v -0.245877 -1.063119 1.260324
v -0.482304 -0.991399 1.260324
v -0.700198 -0.874933 1.260324
v -0.891182 -0.718195 1.260324
v -1.047920 -0.527211 1.260324
v -1.164386 -0.309317 1.260324
v -1.236105 -0.072890 1.260324
v -1.260322 0.172987 1.260324
v -1.236105 0.418864 1.260324
v -1.164386 0.655292 1.260324
v -1.047920 0.873184 1.260324
v -0.891182 1.064169 1.260324
v -0.700198 1.220907 1.260324
v -0.482304 1.337373 1.260324
v -0.245877 1.409093 1.260324
v -0.754197 0.172987 1.260324
v -0.696787 -0.115632 1.260324
v -0.739705 0.025850 1.260324
v -0.739705 0.320124 1.260324
v -0.627092 -0.246022 1.260324
v -0.627092 0.591996 1.260324
v -0.696787 0.461606 1.260324
v -0.533298 0.706285 1.260324
v -0.419009 -0.454105 1.260324
v -0.419009 0.800079 1.260324
v 0.000000 0.927184 1.260324
v -0.147137 0.912693 1.260324
v 0.147137 0.912693 1.260324
v -0.288619 0.869774 1.260324
v -0.533298 -0.360311 1.260324
v -0.288619 -0.523800 1.260324
v -0.147137 -0.566718 1.260324
v 0.419009 0.800079 1.260324
v 0.627092 0.591996 1.260324
v 0.533298 0.706285 1.260324
v 0.735795 0.117780 1.260324
v 0.739705 0.320124 1.260324
v 0.696787 0.461606 1.260324
v 0.000000 1.433309 0.732135
v 0.245877 1.409093 0.732135
v 0.482304 1.337373 0.732135
v 0.700198 1.220907 0.732135
v 0.891182 1.064169 0.732135
v 1.047920 0.873184 0.732135
v 1.164386 0.655292 0.732135
v 1.236105 0.418864 0.732135
v 1.241920 0.117780 0.732135
v -0.245877 -1.063119 0.732135
v -0.482304 -0.991399 0.732135
v -0.700198 -0.874933 0.732135
v -0.891182 -0.718195 0.732135
v -1.047920 -0.527210 0.732135
v -1.164386 -0.309317 0.732135
v -1.236105 -0.072890 0.732135
v -1.260322 0.172987 0.732135
v -1.236105 0.418864 0.732135
v -1.164386 0.655292 0.732135
v -1.047920 0.873184 0.732135
v -0.891182 1.064169 0.732135
v -0.700198 1.220907 0.732135
v -0.482304 1.337373 0.732135
v -0.245877 1.409093 0.732135
v -0.245877 1.409093 1.260324
v -0.482304 1.337373 1.260324
v -0.700198 1.220907 1.260324
v -0.891182 1.064169 1.260324
v -1.047920 0.873184 1.260324
v -1.164386 0.655292 1.260324
v -1.236105 0.418864 1.260324
v -1.260322 0.172987 1.260324
v -1.236105 -0.072890 1.260324
v -1.164386 -0.309317 1.260324
v -1.047920 -0.527211 1.260324
v -0.891182 -0.718195 1.260324
v -0.700198 -0.874933 1.260324
v -0.482304 -0.991399 1.260324
v -0.245877 -1.063119 1.260324
v 1.241920 0.117780 1.260324
v 1.236105 0.418864 1.260324
v 1.164386 0.655292 1.260324
v 1.047920 0.873184 1.260324
v 0.891182 1.064169 1.260324
v 0.700198 1.220907 1.260324
v 0.482304 1.337373 1.260324
v 0.245877 1.409093 1.260324
v 0.735795 0.117780 1.260324
v 0.739705 0.320124 1.260324
v 0.627092 0.591996 1.260324
v 0.696787 0.461606 1.260324
v 0.533298 0.706285 1.260324
v 0.419009 0.800079 1.260324
v 0.147137 0.912693 1.260324
v -0.288619 0.869774 1.260324
v -0.147137 0.912693 1.260324
v 0.288619 0.869774 1.260324
v -0.147137 -0.566718 1.260324
v -0.288619 -0.523800 1.260324
v -0.419009 0.800079 1.260324
v -0.419009 -0.454105 1.260324
v -0.627092 0.591996 1.260324
v -0.627092 -0.246022 1.260324
v -0.533298 0.706285 1.260324
v -0.754197 0.172987 1.260324
v -0.739705 0.320124 1.260324
v -0.696787 -0.115632 1.260324
v -0.739705 0.025850 1.260324
v -0.696787 0.461606 1.260324
v -0.533298 -0.360311 1.260324
v -0.245877 1.409093 0.732135
v -0.482304 1.337373 0.732135
v -0.700198 1.220907 0.732135
v -0.891182 1.064169 0.732135
v -1.047920 0.873184 0.732135
v -1.164386 0.655292 0.732135
v -1.236105 0.418864 0.732135
v -1.260322 0.172987 0.732135
v -1.236105 -0.072890 0.732135
v -1.164386 -0.309317 0.732135
v -1.047920 -0.527210 0.732135
v -0.891182 -0.718195 0.732135
v -0.700198 -0.874933 0.732135
v -0.482304 -0.991399 0.732135
v -0.245877 -1.063119 0.732135
v 1.241920 0.117780 0.732135
v 1.236105 0.418864 0.732135
v 1.164386 0.655292 0.732135
v 1.047920 0.873184 0.732135
v 0.891182 1.064169 0.732135
v 0.700198 1.220907 0.732135
v 0.482304 1.337373 0.732135
v 0.245877 1.409093 0.732135
v 0.000000 1.433309 0.203947
v 0.245877 1.409093 0.203947
v 0.482304 1.337373 0.203947
v 0.700198 1.220907 0.203947
v 0.891182 1.064170 0.203947
v 1.047920 0.873185 0.203947
v 1.164386 0.655292 0.203947
v 1.236105 0.418864 0.203947
v 1.241920 0.117780 0.203947
v -0.245877 -1.063119 0.203947
v -0.482304 -0.991399 0.203947
v -0.700198 -0.874933 0.203947
v -0.891182 -0.718195 0.203947
v -1.047920 -0.527210 0.203947
v -1.164386 -0.309317 0.203947
v -1.236105 -0.072890 0.203947
v -1.260322 0.172987 0.203947
v -1.236105 0.418864 0.203947
v -1.164386 0.655292 0.203947
v -1.047920 0.873185 0.203947
v -0.891182 1.064170 0.203947
v -0.700198 1.220907 0.203947
v -0.482304 1.337373 0.203947
v -0.245877 1.409093 0.203947
v -0.754197 0.172987 0.203947
v -0.696787 -0.115632 0.203947
v -0.739705 0.025851 0.203947
v -0.739705 0.320124 0.203947
v -0.627092 -0.246022 0.203947
v -0.627092 0.591996 0.203947
v -0.696787 0.461606 0.203947
v -0.533298 0.706285 0.203947
v -0.419009 -0.454105 0.203947
v -0.419009 0.800079 0.203947
v 0.000000 0.927184 0.203947
v -0.147137 0.912693 0.203947
v 0.288619 0.869774 0.203947
v 0.147137 0.912693 0.203947
v -0.288619 0.869774 0.203947
v -0.533298 -0.360311 0.203947
v -0.288619 -0.523800 0.203947
v -0.147137 -0.566718 0.203947
v 0.419009 0.800079 0.203947
v 0.627092 0.591996 0.203947
v 0.533298 0.706285 0.203947
v 0.735795 0.117780 0.203947
v 0.739705 0.320124 0.203947
v 0.696787 0.461606 0.203947
v -0.245877 1.409093 0.203947
v -0.482304 1.337373 0.203947
v -0.700198 1.220907 0.203947
v -0.891182 1.064170 0.203947
v -1.047920 0.873185 0.203947
v -1.164386 0.655292 0.203947
v -1.236105 0.418864 0.203947
v -1.260322 0.172987 0.203947
v -1.236105 -0.072890 0.203947
v -1.164386 -0.309317 0.203947
v -1.047920 -0.527210 0.203947
v -0.891182 -0.718195 0.203947
v -0.700198 -0.874933 0.203947
v -0.482304 -0.991399 0.203947
v -0.245877 -1.063119 0.203947
v 1.241920 0.117780 0.203947
v 1.236105 0.418864 0.203947
v 1.164386 0.655292 0.203947
v 1.047920 0.873185 0.203947
v 0.891182 1.064170 0.203947
v 0.700198 1.220907 0.203947
v 0.482304 1.337373 0.203947
v 0.245877 1.409093 0.203947
v 0.735795 0.117780 0.203947
v 0.739705 0.320124 0.203947
v 0.627092 0.591996 0.203947
v 0.696787 0.461606 0.203947
v 0.533298 0.706285 0.203947
v 0.419009 0.800079 0.203947
v 0.147137 0.912693 0.203947
v -0.147137 0.912693 0.203947
v 0.288619 0.869774 0.203947
v -0.147137 -0.566718 0.203947
v -0.288619 -0.523800 0.203947
v -0.419009 0.800079 0.203947
v -0.419009 -0.454105 0.203947
v -0.627092 0.591996 0.203947
v -0.627092 -0.246022 0.203947
v -0.533298 0.706285 0.203947
v -0.754197 0.172987 0.203947
v -0.739705 0.320124 0.203947
v -0.696787 -0.115632 0.203947
v -0.739705 0.025851 0.203947
v -0.696787 0.461606 0.203947
v -0.533298 -0.360311 0.203947
v 0.106668 0.916678 1.260324
v 0.106668 0.916678 0.203947
v -0.090938 -1.084050 1.260324
v -0.095312 -0.564932 1.260324
v -0.090938 -1.084050 0.203947
v -0.095312 -0.564931 0.203947
v -0.095312 -0.123452 1.260324
v -0.095312 -0.123452 0.203947
v -0.083871 -1.405382 1.260324
v -0.083871 -1.405382 0.203947
v 0.863661 -0.536532 0.732136
vn 0.0980 0.9952 -0.0000
vn 0.1951 0.9808 -0.0000
vn 0.3827 0.9239 -0.0000
vn 0.5556 0.8315 -0.0000
vn 0.7071 0.7071 -0.0000
vn 0.8315 0.5556 -0.0000
vn 0.9239 0.3827 -0.0000
vn 0.9877 0.1563 -0.0000
vn 0.9998 0.0193 -0.0000
vn -0.2903 -0.9569 -0.0000
vn -0.3827 -0.9239 -0.0000
vn -0.5556 -0.8315 -0.0000
vn -0.7071 -0.7071 -0.0000
vn -0.8315 -0.5556 -0.0000
vn -0.9239 -0.3827 -0.0000
vn -0.9808 -0.1951 -0.0000
vn -1.0000 -0.0000 -0.0000
vn -0.9808 0.1951 -0.0000
vn -0.9239 0.3827 -0.0000
vn -0.8315 0.5556 -0.0000
vn -0.7071 0.7071 -0.0000
vn -0.5556 0.8315 -0.0000
vn -0.3827 0.9239 -0.0000
vn -0.1951 0.9808 -0.0000
vn -0.0980 0.9952 -0.0000
vn -0.0000 -0.0000 1.0000
vn -0.1765 0.8873 0.4261
vn -0.3462 0.8358 0.4261
vn 0.5026 0.7522 0.4261
vn 0.2785 0.6725 0.6857
vn 0.1765 0.8873 0.4261
vn -0.2616 -0.6316 0.7298
vn -0.4901 -0.7335 0.4709
vn -0.0000 -0.0000 -1.0000
vn -0.1765 0.8873 -0.4261
vn -0.2785 0.6725 -0.6857
vn -0.5026 0.7522 -0.4261
vn 0.3462 0.8358 -0.4261
vn 0.1765 0.8873 -0.4261
vn 0.1951 -0.9808 -0.0000
vn -0.0000 -1.0000 -0.0000
vn 0.3827 -0.9239 -0.0000
vn 0.5556 -0.8315 -0.0000
vn 0.7071 -0.7071 -0.0000
vn -0.0980 -0.9952 -0.0000
vn -0.1721 -0.8652 0.4709
vn -0.1721 -0.8652 -0.4709
vn -0.3376 -0.8150 -0.4709
vn 0.8315 -0.5556 -0.0000
vn 0.9239 -0.3827 -0.0000
vn 0.9808 -0.1951 -0.0000
vn 1.0000 -0.0000 -0.0000
vn 0.9808 0.1951 -0.0000
vn 0.2903 0.9569 -0.0000
vn -0.9905 -0.1372 -0.0000
vn -0.9998 0.0193 -0.0000
vn -0.1339 -0.9910 -0.0000
vn -0.0345 0.9994 -0.0000
vn 0.3956 0.9184 -0.0000
vn -0.9998 -0.0220 -0.0000
vn 0.4839 0.0043 -0.8751
vn 0.6758 -0.7370 -0.0000
vn 0.4839 0.0043 0.8751
vt 1.000000 0.750000
vt 1.000000 1.000000
vt 0.968750 1.000000
vt 0.968750 0.750000
vt 0.937500 1.000000
vt 0.937500 0.750000
vt 0.906250 1.000000
vt 0.906250 0.750000
vt 0.875000 1.000000
vt 0.875000 0.750000
vt 0.843750 1.000000
vt 0.843750 0.750000
vt 0.812500 1.000000
vt 0.812500 0.750000
vt 0.781250 1.000000
vt 0.781250 0.750000
vt 0.750000 1.000000
vt 0.750000 0.750000
vt 0.468750 0.750000
vt 0.468750 1.000000
vt 0.437500 1.000000
vt 0.437500 0.750000
vt 0.406250 1.000000
vt 0.406250 0.750000
vt 0.375000 1.000000
vt 0.375000 0.750000
vt 0.343750 1.000000
vt 0.343750 0.750000
vt 0.312500 1.000000
vt 0.312500 0.750000
vt 0.281250 1.000000
vt 0.281250 0.750000
vt 0.250000 1.000000
vt 0.250000 0.750000
vt 0.218750 1.000000
vt 0.218750 0.750000
vt 0.187500 1.000000
vt 0.187500 0.750000
vt 0.156250 1.000000
vt 0.156250 0.750000
vt 0.125000 1.000000
vt 0.125000 0.750000
vt 0.093750 1.000000
vt 0.093750 0.750000
vt 0.062500 1.000000
vt 0.062500 0.750000
vt 0.031250 1.000000
vt 0.031250 0.750000
vt 0.000000 1.000000
vt 0.000000 0.750000
vt 0.000000 0.000000
vt 0.718750 0.750000
vt 0.718750 1.000000
vt 0.687500 0.750000
vt 0.687500 1.000000
vt 0.656250 0.750000
vt 0.656250 1.000000
vt 0.625000 0.750000
vt 0.625000 1.000000
vt 0.593750 0.750000
vt 0.593750 1.000000
vt 0.562500 0.750000
vt 0.562500 1.000000
vt 0.531250 0.750000
vt 0.531250 1.000000
vt 0.531250 1.000000
s 1
f 48/1/1 1/2/1 2/3/2 49/4/2
f 49/4/2 2/3/2 3/5/3 50/6/3
f 50/6/3 3/5/3 4/7/4 51/8/4
f 51/8/4 4/7/4 5/9/5 52/10/5
f 52/10/5 5/9/5 6/11/6 53/12/6
f 53/12/6 6/11/6 7/13/7 54/14/7
f 54/14/7 7/13/7 8/15/8 55/16/8
f 55/16/8 8/15/8 9/17/9 56/18/9
f 57/19/10 10/20/10 11/21/11 58/22/11
f 58/22/11 11/21/11 12/23/12 59/24/12
f 59/24/12 12/23/12 13/25/13 60/26/13
f 60/26/13 13/25/13 14/27/14 61/28/14
f 61/28/14 14/27/14 15/29/15 62/30/15
f 62/30/15 15/29/15 16/31/16 63/32/16
f 63/32/16 16/31/16 17/33/17 64/34/17
f 64/34/17 17/33/17 18/35/18 65/36/18
f 65/36/18 18/35/18 19/37/19 66/38/19
f 66/38/19 19/37/19 20/39/20 67/40/20
f 67/40/20 20/39/20 21/41/21 68/42/21
f 68/42/21 21/41/21 22/43/22 69/44/22
f 69/44/22 22/43/22 23/45/23 70/46/23
f 70/46/23 23/45/23 24/47/24 71/48/24
f 71/48/24 24/47/24 1/49/25 48/50/25
s 0
f 5/9/26 44/51/26 43/51/26 6/11/26
f 7/13/26 6/11/26 43/51/26 47/51/26
f 7/13/26 47/51/26 46/51/26 8/15/26
f 5/9/26 4/7/26 42/51/26 44/51/26
f 2/3/26 1/2/26 35/51/26 37/51/26
f 8/15/26 46/51/26 45/51/26 9/17/26
s 1
f 48/1/25 118/4/24 72/3/27 1/2/25
f 118/4/24 119/6/23 73/5/28 72/3/27
f 119/6/23 120/8/22 74/7/22 73/5/28
f 120/8/22 121/10/21 75/9/21 74/7/22
f 121/10/21 122/12/20 76/11/20 75/9/21
f 122/12/20 123/14/19 77/13/19 76/11/20
f 123/14/19 124/16/18 78/15/18 77/13/19
f 124/16/18 125/18/17 79/17/17 78/15/18
f 125/18/17 126/52/16 80/53/16 79/17/17
f 126/52/16 127/54/15 81/55/15 80/53/16
f 127/54/15 128/56/14 82/57/14 81/55/15
f 128/56/14 129/58/13 83/59/13 82/57/14
f 129/58/13 130/60/12 84/61/12 83/59/13
f 130/60/12 131/62/11 85/63/11 84/61/12
f 131/62/11 132/64/10 86/65/10 85/63/11
f 133/34/9 134/36/8 88/35/8 87/33/9
f 134/36/8 135/38/7 89/37/7 88/35/8
f 135/38/7 136/40/6 90/39/6 89/37/7
f 136/40/6 137/42/5 91/41/5 90/39/6
f 137/42/5 138/44/4 92/43/29 91/41/5
f 138/44/4 139/46/3 93/45/30 92/43/29
f 139/46/3 140/48/2 94/47/31 93/45/30
f 140/48/2 48/50/1 1/49/1 94/47/31
s 0
f 75/9/26 76/11/26 109/51/26 111/51/26
f 77/13/26 116/51/26 109/51/26 76/11/26
f 77/13/26 78/15/26 113/51/26 116/51/26
f 75/9/26 111/51/26 107/51/26 74/7/26
f 72/3/26 103/51/26 35/51/26 1/2/26
f 80/53/26 115/51/26 112/51/26 79/17/26
f 83/59/26 84/61/26 108/51/26 117/51/26
f 84/61/26 85/63/26 106/51/26 108/51/26
f 85/63/26 86/65/26 105/51/26 106/51/26
f 83/59/26 117/51/26 110/51/26 82/57/26
f 78/15/26 79/17/26 112/51/26 113/51/26
f 80/53/26 81/55/26 114/51/26 115/51/26
f 81/55/26 82/57/26 110/51/26 114/51/26
f 74/7/26 107/51/26 102/51/26 73/5/26
s 1
f 93/45/30 104/51/32 100/51/33 92/43/29
f 48/1/1 49/4/2 142/3/2 141/2/1
f 49/4/2 50/6/3 143/5/3 142/3/2
f 50/6/3 51/8/4 144/7/4 143/5/3
f 51/8/4 52/10/5 145/9/5 144/7/4
f 52/10/5 53/12/6 146/11/6 145/9/5
f 53/12/6 54/14/7 147/13/7 146/11/6
f 54/14/7 55/16/8 148/15/8 147/13/7
f 55/16/8 56/18/9 149/17/9 148/15/8
f 57/19/10 58/22/11 151/21/11 150/20/10
f 58/22/11 59/24/12 152/23/12 151/21/11
f 59/24/12 60/26/13 153/25/13 152/23/12
f 60/26/13 61/28/14 154/27/14 153/25/13
f 61/28/14 62/30/15 155/29/15 154/27/14
f 62/30/15 63/32/16 156/31/16 155/29/15
f 63/32/16 64/34/17 157/33/17 156/31/16
f 64/34/17 65/36/18 158/35/18 157/33/17
f 65/36/18 66/38/19 159/37/19 158/35/18
f 66/38/19 67/40/20 160/39/20 159/37/19
f 67/40/20 68/42/21 161/41/21 160/39/20
f 68/42/21 69/44/22 162/43/22 161/41/21
f 69/44/22 70/46/23 163/45/23 162/43/22
f 70/46/23 71/48/24 164/47/24 163/45/23
f 71/48/24 48/50/25 141/49/25 164/47/24
s 0
f 145/9/34 146/11/34 184/51/34 185/51/34
f 147/13/34 188/51/34 184/51/34 146/11/34
f 147/13/34 148/15/34 187/51/34 188/51/34
f 145/9/34 185/51/34 183/51/34 144/7/34
f 142/3/34 178/51/34 175/51/34 141/2/34
f 148/15/34 149/17/34 186/51/34 187/51/34
f 144/7/34 183/51/34 177/51/34 143/5/34
s 1
f 73/5/28 102/51/26 103/51/26 72/3/27
f 48/1/25 141/2/25 189/3/35 118/4/24
f 118/4/24 189/3/35 190/5/36 119/6/23
f 119/6/23 190/5/36 191/7/37 120/8/22
f 120/8/22 191/7/37 192/9/21 121/10/21
f 121/10/21 192/9/21 193/11/20 122/12/20
f 122/12/20 193/11/20 194/13/19 123/14/19
f 123/14/19 194/13/19 195/15/18 124/16/18
f 124/16/18 195/15/18 196/17/17 125/18/17
f 125/18/17 196/17/17 197/53/16 126/52/16
f 126/52/16 197/53/16 198/55/15 127/54/15
f 127/54/15 198/55/15 199/57/14 128/56/14
f 128/56/14 199/57/14 200/59/13 129/58/13
f 129/58/13 200/59/13 201/61/12 130/60/12
f 130/60/12 201/61/12 202/63/11 131/62/11
f 131/62/11 202/63/11 203/65/10 132/64/10
f 133/34/9 204/33/9 205/35/8 134/36/8
f 134/36/8 205/35/8 206/37/7 135/38/7
f 135/38/7 206/37/7 207/39/6 136/40/6
f 136/40/6 207/39/6 208/41/5 137/42/5
f 137/42/5 208/41/5 209/43/4 138/44/4
f 138/44/4 209/43/4 210/45/38 139/46/3
f 139/46/3 210/45/38 211/47/39 140/48/2
f 140/48/2 211/47/39 141/49/1 48/50/1
s 0
f 192/9/34 227/51/34 225/51/34 193/11/34
f 194/13/34 193/11/34 225/51/34 232/51/34
f 194/13/34 232/51/34 229/51/34 195/15/34
f 192/9/34 191/7/34 223/51/34 227/51/34
f 189/3/34 141/2/34 175/51/34 219/51/34
f 197/53/34 196/17/34 228/51/34 231/51/34
f 200/59/34 233/51/34 224/51/34 201/61/34
f 201/61/34 224/51/34 222/51/34 202/63/34
f 202/63/34 222/51/34 221/51/34 203/65/34
f 200/59/34 199/57/34 226/51/34 233/51/34
f 195/15/34 229/51/34 228/51/34 196/17/34
f 197/53/34 231/51/34 230/51/34 198/55/34
f 198/55/34 230/51/34 226/51/34 199/57/34
s 1
f 36/51/40 176/51/40 175/51/41 35/51/41
f 38/51/42 179/51/42 176/51/40 36/51/40
f 38/51/42 34/51/43 174/51/43 179/51/42
f 34/51/43 32/51/44 172/51/44 174/51/43
f 234/51/45 35/51/41 175/51/41 235/51/45
f 104/51/32 101/51/46 218/51/47 220/51/48
f 104/51/32 220/51/48 217/51/12 100/51/33
f 100/51/33 217/51/12 216/51/13 99/51/13
f 32/51/44 30/51/49 170/51/49 172/51/44
f 31/51/50 171/51/50 170/51/49 30/51/49
f 31/51/50 28/51/51 168/51/51 171/51/50
f 28/51/51 25/51/52 165/51/52 168/51/51
f 27/51/53 167/51/53 165/51/52 25/51/52
f 27/51/53 26/51/7 166/51/7 167/51/53
f 29/51/6 169/51/6 166/51/7 26/51/7
f 39/51/5 180/51/5 169/51/6 29/51/6
f 39/51/5 33/51/4 173/51/4 180/51/5
f 40/51/3 181/51/3 173/51/4 33/51/4
f 41/51/54 182/51/54 181/51/3 40/51/3
f 96/51/55 213/51/55 212/51/56 95/51/56
f 98/51/15 215/51/15 213/51/55 96/51/55
f 98/51/15 97/51/14 214/51/14 215/51/15
f 99/51/13 216/51/13 214/51/14 97/51/14
f 101/51/46 234/51/45 235/51/45 218/51/47
s 0
f 45/51/41 186/51/41 149/17/41 9/17/41
f 236/65/34 237/51/34 240/51/34 242/65/34
f 221/51/34 239/51/34 238/65/34 203/65/34
s 1
f 93/45/30 94/47/31 101/51/46 104/51/32
s 0
f 236/65/57 86/65/57 203/65/57 238/65/57
f 237/51/58 239/51/58 221/51/58 105/51/58
f 240/51/59 244/66/59 241/51/59
f 237/51/17 240/51/17 241/51/17 239/51/17
f 239/51/26 238/65/26 243/65/26 241/51/26
f 238/65/60 243/65/60 242/65/60 236/65/60
f 241/51/61 244/65/61 243/65/61
f 243/65/62 244/65/62 242/65/62
f 242/65/63 244/65/63 240/51/63
s 1
f 210/45/38 220/51/48 218/51/47 211/47/39
f 189/3/35 219/51/34 179/51/34 190/5/36
f 190/5/36 179/51/34 223/51/34 191/7/37
s 0
f 105/51/26 86/65/26 236/65/26 237/51/26
l 177 178
