# Blender 4.3.2
# www.blender.org
mtllib endpointslice.mtl
o endpoint-slice
v -0.652228 0.553721 0.652228
v 0.689736 -1.114965 0.418270
v -1.197562 0.118283 0.127296
v -0.111412 0.118283 1.168788
v -1.517620 -1.114965 0.418270
v 0.421156 -1.114965 -0.686850
v 0.421156 -1.114965 1.520505
v 0.421156 -0.529731 1.520505
v 0.421156 -0.529731 -0.686850
v -0.111412 -0.118283 1.168788
v -0.652228 1.163271 0.652228
v 0.689736 -0.529731 0.418270
v -1.197562 -0.118283 0.127296
v -1.517620 -0.529731 0.418270
v -0.415385 -1.114965 1.520505
v -0.415385 -1.114965 -0.686850
v -0.111050 0.114374 -1.168912
v -0.652228 0.553721 -0.652228
v 0.689736 -1.114965 -0.418270
v -1.197562 0.118283 -0.127296
v -1.517620 -1.114965 -0.418270
v -0.415385 -0.529731 1.520505
v -0.415385 -0.529731 -0.686850
v -0.680819 -1.114965 -0.418270
v -0.652228 1.163271 -0.652228
v 0.689736 -0.529731 -0.418270
v -1.197562 -0.118283 -0.127296
v -1.517620 -0.529731 -0.418270
v -0.111412 -0.118283 -1.168788
v 0.652228 0.553721 0.652228
v 0.421156 -1.114965 -1.523391
v 0.421156 -1.114965 0.683965
v 0.111412 0.118283 1.168788
v 1.197562 0.118283 0.127296
v 1.526276 -1.114965 0.418270
v 1.197562 -0.118283 0.127296
v -0.681080 -0.529731 0.418270
v 0.421156 -0.529731 0.683965
v 1.526276 -0.529731 0.418270
v 0.652228 1.163271 0.652228
v 0.111412 -0.118283 1.168788
v 0.421156 -0.529731 -1.523391
v 0.315238 -0.118283 -0.834939
v 0.111050 0.114374 -1.168912
v 0.652228 0.553721 -0.652228
v -0.415385 -1.114965 0.683965
v 1.526276 -1.114965 -0.418270
v 1.197562 0.118283 -0.127296
v -0.415385 -1.114965 -1.523391
v -0.681080 -0.529731 -0.418270
v 0.652228 1.163271 -0.652228
v 1.526276 -0.529731 -0.418270
v 0.111412 -0.118283 -1.168788
v -0.415385 -0.529731 0.683965
v 1.197562 -0.118283 -0.127296
v -0.415385 -0.529731 -1.523391
v 0.110869 0.553721 0.103579
v 0.110869 0.553721 -0.099216
v -0.110869 0.553721 0.103579
v -0.110869 0.553721 -0.099216
v -0.110869 -0.118283 1.168788
v -0.315238 -0.118283 -0.834939
v 0.315238 -0.118283 -1.318041
v 0.000000 -0.529731 1.067556
v -0.110869 -0.118283 0.966159
v -0.316781 -0.118283 -1.318041
v 0.110869 -0.118283 0.966159
v -0.315238 -0.118283 -1.318041
v 0.110869 -0.118283 1.168788
v 0.316781 -0.118283 -1.318041
v 1.083910 -0.529731 0.000000
v 1.083910 -0.529731 0.000000
v 1.083910 -0.529731 0.000000
v 1.083910 -0.529731 0.000000
v -1.083981 -0.529731 0.000000
v -1.083981 -0.529731 0.000000
v -1.083981 -0.529731 0.000000
v -1.083981 -0.529731 0.000000
v -0.111412 -0.118283 -0.127296
v 0.111412 -0.118283 -0.127296
v 0.111412 0.118283 -0.127296
v -0.111412 0.118283 -0.127296
v -0.111412 -0.118283 0.127296
v 0.111412 -0.118283 0.127296
v -0.111412 0.118283 0.127296
v 0.111412 0.118283 0.127296
v -0.111412 -0.118283 -0.011843
v -0.111412 0.118283 0.011843
v -0.110869 -0.118283 -1.168788
v 0.110869 -0.118283 -1.168788
v -0.681080 -1.114071 0.418270
v 0.111412 -0.118283 0.011843
v 0.111412 0.118283 -0.011843
v 0.000000 -0.529731 -1.067763
v 0.000000 -0.529731 -1.067763
v 0.000000 -0.529731 -1.067763
v 0.000000 -0.529731 -1.067763
v -0.110869 -0.118283 -0.966365
v 0.110869 -0.118283 -0.966365
v 0.970723 -0.118283 0.126543
v 0.970723 -0.118283 -0.126543
v 1.197098 -0.118283 -0.126543
v 1.197098 -0.118283 0.126543
v -1.197168 -0.118283 0.126543
v -1.197168 -0.118283 -0.126543
v -0.970793 -0.118283 -0.126543
v -0.970793 -0.118283 0.126543
v -0.110869 0.118283 0.103579
v -0.110869 0.118283 0.011785
v -0.110869 0.118283 -0.099216
v 0.110869 0.118283 -0.099216
v 0.110869 0.118283 -0.011785
v 0.110869 0.118283 0.103579
v -0.316344 -0.118283 1.304866
v 0.316344 -0.118283 1.304866
v -0.314804 -0.118283 1.304866
v -0.314804 -0.118283 0.821970
v 0.314804 -0.118283 0.821970
v 0.314804 -0.118283 1.304866
v -0.828386 -0.118283 -0.321791
v -0.828386 -0.118283 0.308685
v -1.311488 -0.118283 -0.321791
v -1.311488 -0.118283 0.310228
v -1.311488 -0.118283 0.308685
v -1.311488 -0.118283 -0.323334
v 1.311419 -0.118283 0.309791
v 1.311419 -0.118283 -0.322897
v 1.311419 -0.118283 0.308251
v 0.828523 -0.118283 0.308251
v 0.828523 -0.118283 -0.321357
v 1.311419 -0.118283 -0.321357
vn -1.0000 -0.0000 -0.0000
vn -0.0000 -0.0000 -1.0000
vn 1.0000 -0.0000 -0.0000
vn -0.0000 -0.0000 1.0000
vn -0.0000 -1.0000 -0.0000
vn -0.0000 1.0000 -0.0000
vn -0.7949 -0.6067 -0.0025
vn 0.5732 -0.8194 -0.0000
vn -0.0000 -0.4996 0.8662
vn 0.7949 -0.6067 -0.0025
vn -1.0000 0.0008 -0.0002
vn -0.0000 -0.0005 -1.0000
vn 1.0000 0.0008 -0.0002
vn -0.0000 1.0000 -0.0038
vn 0.8751 -0.4839 -0.0000
vn 0.8494 -0.5277 -0.0000
vn -0.8496 -0.5274 -0.0000
vn -0.0000 -0.6174 -0.7867
vn -0.8751 -0.4839 -0.0000
vn -0.0000 -0.6179 -0.7863
vn -0.0000 -0.5125 -0.8587
vn -0.0000 -0.5197 -0.8544
vn -0.7924 -0.6101 -0.0000
vn -0.0000 -0.4925 0.8703
vn 0.7924 -0.6101 -0.0000
vn 1.0000 0.0002 0.0002
vn 0.0005 -1.0000 0.0005
vn -0.0000 -0.6020 0.7985
vn -0.0000 -0.6015 0.7989
vt 0.375000 0.000000
vt 0.625000 0.000000
vt 0.625000 0.250000
vt 0.375000 0.250000
vt 0.625000 0.500000
vt 0.375000 0.500000
vt 0.625000 0.750000
vt 0.375000 0.750000
vt 0.625000 1.000000
vt 0.375000 1.000000
vt 0.125000 0.750000
vt 0.228752 0.644851
vt 0.271248 0.644851
vt 0.125000 0.500000
vt 0.271248 0.605985
vt 0.228752 0.605985
vt 0.875000 0.500000
vt 0.875000 0.750000
vt 0.000000 0.000000
vt 0.874391 0.500000
vt 0.874391 0.521649
vt 0.625000 0.999391
vt 0.625000 0.750609
vt 0.791027 0.587183
vt 0.791027 0.662817
vt 0.723375 0.587183
vt 0.723375 0.662817
vt 0.711581 0.662817
vt 0.711581 0.587183
vt 0.779233 0.662817
vt 0.779233 0.587183
vt 0.375000 0.363371
vt 0.625000 0.363371
vt 0.375000 0.386629
vt 0.625000 0.386629
vt 0.625000 0.863371
vt 0.375000 0.863371
vt 0.625000 0.886629
vt 0.375000 0.886629
vt 0.261629 0.750000
vt 0.261629 0.500000
vt 0.261629 0.613371
vt 0.238371 0.750000
vt 0.238371 0.636629
vt 0.238371 0.500000
vt 0.238428 0.636572
vt 0.261572 0.613428
vt 0.261572 0.726711
vt 0.238428 0.726711
vt 0.238428 0.527574
vt 0.261572 0.527574
vt 0.874959 0.500740
vt 0.874959 0.749260
vt 0.761629 0.500000
vt 0.761629 0.613371
vt 0.761629 0.750000
vt 0.851330 0.749260
vt 0.851330 0.500740
vt 0.625048 0.500740
vt 0.625048 0.749260
vt 0.738371 0.750000
vt 0.738371 0.636629
vt 0.738371 0.500000
vt 0.648677 0.500740
vt 0.648677 0.749260
vt 0.375000 0.111386
vt 0.625000 0.111386
vt 0.375000 0.138614
vt 0.625000 0.138614
vt 0.381197 0.250609
vt 0.625000 0.250609
vt 0.625000 0.611386
vt 0.375000 0.611386
vt 0.625000 0.638614
vt 0.375000 0.638614
vt 0.125000 0.611386
vt 0.125000 0.638614
vt 0.874391 0.750000
vt 0.875000 0.638614
vt 0.625609 0.750000
vt 0.625609 0.728329
vt 0.874391 0.728329
vt 0.625609 0.521649
vt 0.791467 0.657271
vt 0.791467 0.591004
vt 0.730862 0.591004
vt 0.730862 0.657271
vt 0.709333 0.591004
vt 0.709333 0.657271
vt 0.625000 0.499391
vt 0.625609 0.500000
vt 0.553226 0.000000
vt 0.553226 0.250000
vt 0.399815 0.250000
vt 0.399815 0.113161
vt 0.399815 0.000000
vt 0.553226 0.500000
vt 0.399815 0.500000
vt 0.553226 0.750000
vt 0.399815 0.750000
vt 0.399815 0.607783
vt 0.553226 1.000000
vt 0.399815 1.000000
vt 0.543720 0.000204
vt 0.543720 0.250000
vt 0.543720 0.500000
vt 0.543720 0.749796
s 0
f 1/1/1 11/2/1 25/3/1 18/4/1
f 18/4/2 25/3/2 51/5/2 45/6/2
f 45/6/3 51/5/3 40/7/3 30/8/3
f 30/8/4 40/7/4 11/9/4 1/10/4
f 30/8/5 1/11/5 59/12/5 57/13/5
f 59/12/5 1/11/5 18/14/5 45/6/5 30/8/5 57/13/5 58/15/5 60/16/5
f 51/5/6 25/17/6 11/18/6 40/7/6
f 64/19/7 114/19/7 116/19/7 117/19/7
f 37/7/4 5/10/4 91/19/4
f 21/14/8 50/5/8 37/7/8 5/11/8
f 89/20/6 68/20/6 62/21/6 98/21/6
f 114/9/6 116/22/6 119/23/6 115/7/6 41/7/6 69/23/6 61/22/6 10/9/6
f 2/1/1 12/2/1 26/3/1 19/4/1
f 19/4/2 26/3/2 52/5/2 47/6/2
f 47/6/3 52/5/3 39/7/3 35/8/3
f 35/8/4 39/7/4 12/9/4 2/10/4
f 19/14/5 47/6/5 35/8/5 2/11/5
f 72/24/6 26/17/6 12/18/6 71/25/6
f 71/25/6 12/18/6 39/7/6 52/5/6 26/17/6 72/24/6 73/26/6 74/27/6
f 5/1/1 14/2/1 28/3/1 21/4/1
f 21/4/2 28/3/2 50/5/2
f 119/19/9 116/19/9 114/19/9 64/19/9 115/19/9
f 37/7/4 14/9/4 5/10/4
f 64/19/10 118/19/10 119/19/10 115/19/10
f 77/28/6 37/7/6 50/5/6 78/29/6
f 78/29/6 50/5/6 28/17/6 14/18/6 37/7/6 77/28/6 76/30/6 75/31/6
f 20/4/1 27/3/1 13/2/1 3/1/1
f 27/3/2 20/4/2 82/32/2 79/33/2
f 81/34/2 48/6/2 55/5/2 80/35/2
f 34/8/3 36/7/3 55/5/3 48/6/3
f 84/36/4 36/7/4 34/8/4 86/37/4
f 3/10/4 13/9/4 83/38/4 85/39/4
f 86/40/6 34/8/6 48/6/6 81/41/6 93/42/6
f 20/14/6 3/11/6 85/43/6 88/44/6 82/45/6
f 109/46/6 88/44/6 85/43/6 86/40/6 93/42/6 112/47/6 113/48/6 108/49/6
f 112/47/6 93/42/6 81/41/6 82/45/6 88/44/6 109/46/6 110/50/6 111/51/6
f 13/18/5 27/17/5 105/52/5 104/53/5
f 105/52/5 27/17/5 79/54/5 87/55/5 83/56/5 13/18/5 104/53/5 107/57/5 106/58/5
f 102/59/5 55/5/5 36/7/5 103/60/5
f 103/60/5 36/7/5 84/61/5 92/62/5 80/63/5 55/5/5 102/59/5 101/64/5 100/65/5
f 84/61/5 83/56/5 87/55/5 92/62/5
f 79/54/5 80/63/5 92/62/5 87/55/5
f 10/2/1 4/1/1 85/66/1 83/67/1
f 82/68/11 17/4/11 29/3/11 79/69/11
f 29/3/12 17/70/12 89/71/12
f 80/72/13 53/5/13 44/6/13 81/73/13
f 33/8/3 41/7/3 84/74/3 86/75/3
f 69/23/4 41/7/4 33/8/4 4/10/4 10/9/4 61/22/4
f 81/73/14 44/6/14 17/14/14 82/76/14
f 85/77/6 4/11/6 33/8/6 86/75/6
f 61/78/5 10/18/5 83/79/5 84/74/5 41/7/5 69/80/5 67/81/5 65/82/5
f 99/83/5 80/63/5 79/54/5 98/21/5
f 6/4/4 9/2/4 23/2/4 16/4/4
f 16/6/1 23/3/1 56/3/1 49/6/1
f 49/8/2 56/5/2 42/5/2 31/8/2
f 31/10/3 42/7/3 9/7/3 6/10/3
f 16/14/5 49/6/5 31/8/5 6/11/5
f 96/84/6 9/18/6 42/7/6 56/5/6 23/17/6 94/85/6 95/86/6 97/87/6
f 94/85/6 23/17/6 9/18/6 96/84/6
f 7/4/4 8/2/4 22/2/4 15/4/4
f 15/6/1 22/3/1 54/3/1 46/6/1
f 46/8/2 54/5/2 38/5/2 32/8/2
f 32/10/3 38/7/3 8/7/3 7/10/3
f 15/14/5 46/6/5 32/8/5 7/11/5
f 54/5/6 22/17/6 8/18/6 38/7/6 64/88/6
f 64/89/6 38/7/6 54/5/6
f 70/19/6 68/19/6 63/19/6
f 94/19/6 96/19/6 97/19/6 95/19/6
f 44/6/12 53/5/12 90/90/12
f 68/71/6 66/3/6 29/3/6 89/20/6 90/91/6 53/5/6 70/5/6 63/90/6
f 44/6/12 53/5/12 90/91/12 89/20/12 29/3/12 17/14/12
f 131/19/15 128/19/15 126/19/15 71/25/15 74/27/15 73/26/15 72/24/15 127/19/15
f 120/19/16 121/19/16 78/29/16 77/28/16 76/30/16 75/31/16
f 129/19/17 130/19/17 71/25/17 72/24/17 73/26/17 74/27/17
f 130/19/18 127/19/18 131/19/18 74/27/18 73/26/18 72/24/18 71/25/18
f 125/19/19 76/30/19 77/28/19 78/29/19 75/31/19 123/19/19 124/19/19 122/19/19
f 125/19/20 120/19/20 75/31/20 76/30/20 77/28/20 78/29/20 122/19/20
f 59/92/1 60/93/1 110/94/1 109/95/1 108/96/1
f 60/93/2 58/97/2 111/98/2 110/94/2
f 111/98/3 58/97/3 57/99/3 113/100/3 112/101/3
f 113/100/4 57/99/4 59/102/4 108/103/4
f 10/9/5 61/22/5 116/22/5 114/9/5
f 69/23/5 41/7/5 115/7/5 119/23/5
f 61/104/6 65/105/6 117/105/6 116/104/6
f 67/106/6 69/107/6 119/107/6 118/106/6
f 65/105/6 67/106/6 118/106/6 117/105/6
f 118/19/21 64/19/21 117/19/21
f 53/5/5 90/90/5 63/90/5 70/5/5
f 98/21/6 62/21/6 43/83/6 99/83/6
f 99/83/6 43/83/6 63/91/6 90/91/6
f 89/71/5 29/3/5 66/3/5 68/71/5
f 63/90/22 70/5/22 97/87/22 96/84/22 95/86/22 94/85/22 68/71/22
f 62/19/23 66/3/23 68/71/23 97/87/23 96/84/23 95/86/23 94/85/23
f 62/21/24 97/87/24 96/84/24 95/86/24 94/85/24 43/83/24
f 43/83/25 94/85/25 95/86/25 96/84/25 97/87/25 63/90/25 70/5/25
f 91/19/26 24/19/26 50/19/26 37/19/26
f 21/19/2 50/19/2 24/19/2
f 5/19/27 21/19/27 24/19/27 91/19/27
f 125/19/1 124/19/1 122/19/1
f 126/19/6 36/19/6 103/19/6 100/19/6 129/19/6 128/19/6
f 131/19/6 127/19/6 55/5/6 102/59/6 103/60/6 36/7/6 126/19/6 128/19/6
f 55/19/6 127/19/6 131/19/6 130/19/6 101/19/6 102/19/6
f 129/19/6 100/19/6 101/19/6 130/19/6
f 120/19/6 106/58/6 107/57/6 121/19/6
f 122/19/6 120/19/6 125/19/6
f 125/19/6 122/19/6 27/17/6 105/52/6 106/58/6 120/19/6
f 122/19/6 124/19/6 123/19/6 13/18/6 104/53/6 105/52/6 27/17/6 125/19/6
f 121/19/6 124/19/6 123/19/6
f 121/19/6 107/57/6 104/53/6 13/18/6 124/19/6 123/19/6
f 77/19/6 76/19/6 75/19/6 78/19/6
f 123/19/28 124/19/28 78/29/28 77/28/28 76/30/28 75/31/28 121/19/28
f 74/19/6 71/19/6 72/19/6 73/19/6
f 126/19/6 128/19/6 129/19/6
f 129/19/29 71/25/29 72/24/29 73/26/29 74/27/29 128/19/29 126/19/29
