# Blender 4.3.2
# www.blender.org
mtllib group.mtl
o group
v -1.288531 -1.288531 0.359865
v -1.288531 1.288531 0.359865
v -1.288531 -1.288531 -0.359865
v -1.288531 1.288531 -0.359865
v 1.288531 -1.288531 0.359865
v 1.288531 1.288531 0.359865
v 1.288531 -1.288531 -0.359865
v 1.288531 1.288531 -0.359865
v -0.959131 -0.595928 -0.359865
v -0.948164 -0.281952 -0.359865
v -0.958076 -0.320139 -0.359865
v -0.913161 -0.232951 -0.359865
v -0.856319 -0.187791 -0.359865
v -0.779822 -0.148208 -0.359865
v -0.224875 -0.076720 -0.359865
v -0.109485 -0.091585 -0.359865
v -0.344876 -0.071701 -0.359865
v -0.686611 -0.115723 -0.359865
v -0.580267 -0.091585 -0.359865
v -0.464878 -0.076720 -0.359865
v 0.166566 -0.187791 -0.359865
v 0.090070 -0.148208 -0.359865
v 0.258412 -0.281952 -0.359865
v 0.269378 -0.320139 -0.359865
v 0.269378 -0.595928 -0.359865
v 0.267268 -0.320139 -0.359865
v 0.223408 -0.232951 -0.359865
v 0.267268 -0.320139 -0.359865
v -0.003141 -0.115723 -0.359865
v -0.959131 -0.595928 0.359865
v -0.958076 -0.320139 0.359865
v -0.948164 -0.281952 0.359865
v -0.913161 -0.232951 0.359865
v -0.856319 -0.187791 0.359865
v -0.779822 -0.148208 0.359865
v 0.267268 -0.320139 0.359865
v -0.686611 -0.115723 0.359865
v -0.580267 -0.091585 0.359865
v -0.464878 -0.076720 0.359865
v 0.223408 -0.232951 0.359865
v 0.258412 -0.281952 0.359865
v 0.269378 -0.320139 0.359865
v 0.269378 -0.595928 0.359865
v 0.166566 -0.187791 0.359865
v -0.344876 -0.071701 0.359865
v -0.224875 -0.076720 0.359865
v -0.109485 -0.091585 0.359865
v -0.003141 -0.115723 0.359865
v 0.090070 -0.148208 0.359865
v 0.267268 -0.320139 0.359865
v -0.529580 0.542094 -0.359865
v -0.444837 0.598718 -0.359865
v -0.489997 0.574579 -0.359865
v -0.395836 0.613582 -0.359865
v -0.293917 0.613582 -0.359865
v -0.344876 0.618601 -0.359865
v -0.199755 0.574579 -0.359865
v -0.244915 0.598718 -0.359865
v -0.127688 0.212270 -0.359865
v -0.127688 0.502511 -0.359865
v -0.083666 0.357391 -0.359865
v -0.088685 0.306431 -0.359865
v -0.088685 0.408350 -0.359865
v -0.103549 0.457351 -0.359865
v -0.160173 0.172687 -0.359865
v -0.103549 0.257430 -0.359865
v -0.160173 0.542094 -0.359865
v -0.562065 0.502511 -0.359865
v -0.199755 0.140202 -0.359865
v -0.278244 0.105954 -0.359865
v -0.244915 0.116064 -0.359865
v -0.601067 0.408350 -0.359865
v -0.586203 0.457351 -0.359865
v -0.360802 0.097749 -0.359865
v -0.344876 0.096180 -0.359865
v -0.293917 0.101199 -0.359865
v -0.606087 0.357391 -0.359865
v -0.601067 0.306431 -0.359865
v -0.444837 0.116064 -0.359865
v -0.395836 0.101199 -0.359865
v -0.489997 0.140202 -0.359865
v -0.586203 0.257430 -0.359865
v -0.529580 0.172687 -0.359865
v -0.562065 0.212270 -0.359865
v -0.529580 0.542094 0.359865
v -0.444837 0.598718 0.359865
v -0.489997 0.574579 0.359865
v -0.344876 0.618601 0.359865
v -0.244915 0.598718 0.359865
v -0.293917 0.613582 0.359865
v -0.395836 0.613582 0.359865
v -0.160173 0.542094 0.359865
v -0.127688 0.212270 0.359865
v -0.127688 0.502511 0.359865
v -0.083666 0.357391 0.359865
v -0.088685 0.306431 0.359865
v -0.088685 0.408350 0.359865
v -0.103549 0.457351 0.359865
v -0.160173 0.172687 0.359865
v -0.103549 0.257430 0.359865
v -0.199755 0.574579 0.359865
v -0.562065 0.502511 0.359865
v -0.199755 0.140202 0.359865
v -0.278244 0.105954 0.359865
v -0.244915 0.116064 0.359865
v -0.586203 0.257430 0.359865
v -0.529580 0.172687 0.359865
v -0.562065 0.212270 0.359865
v -0.601067 0.408350 0.359865
v -0.586203 0.457351 0.359865
v -0.360802 0.097749 0.359865
v -0.344876 0.096180 0.359865
v -0.293917 0.101199 0.359865
v -0.606087 0.357391 0.359865
v -0.601067 0.306431 0.359865
v -0.444837 0.116064 0.359865
v -0.395836 0.101199 0.359865
v -0.489997 0.140202 0.359865
v 0.433614 -0.595928 -0.359865
v 0.376552 -0.175339 -0.359865
v 0.433297 -0.283566 -0.359865
v 0.421018 -0.240448 -0.359865
v 0.433614 -0.320139 -0.359865
v 0.577644 -0.091585 -0.359865
v 0.462254 -0.076720 -0.359865
v 0.853696 -0.187791 -0.359865
v 0.777199 -0.148208 -0.359865
v 0.955766 -0.595928 -0.359865
v 0.954711 -0.320139 -0.359865
v 0.945541 -0.281952 -0.359865
v 0.910537 -0.232951 -0.359865
v 0.683988 -0.115723 -0.359865
v 0.304886 -0.118713 -0.359865
v 0.342253 -0.071701 -0.359865
v 0.222885 -0.076663 -0.359865
v 0.433614 -0.595928 0.359865
v 0.376552 -0.175339 0.359865
v 0.344858 -0.150159 0.359865
v 0.431942 -0.281852 0.359865
v 0.420002 -0.236164 0.359865
v 0.433614 -0.320139 0.359865
v 0.462254 -0.076720 0.359865
v 0.945541 -0.281952 0.359865
v 0.910537 -0.232951 0.359865
v 0.955766 -0.595928 0.359865
v 0.954711 -0.320139 0.359865
v 0.853696 -0.187791 0.359865
v 0.777199 -0.148208 0.359865
v 0.683988 -0.115723 0.359865
v 0.577644 -0.091585 0.359865
v 0.222885 -0.076663 0.359865
v 0.305993 -0.119281 0.359865
v 0.342253 -0.071701 0.359865
v 0.525474 0.172687 -0.359865
v 0.557959 0.212270 -0.359865
v 0.582098 0.257430 -0.359865
v 0.359222 0.097998 -0.359865
v 0.440731 0.116064 -0.359865
v 0.485891 0.140202 -0.359865
v 0.391730 0.101199 -0.359865
v 0.601981 0.357391 -0.359865
v 0.596962 0.306431 -0.359865
v 0.289811 0.101199 -0.359865
v 0.280955 0.103886 -0.359865
v 0.240810 0.116064 -0.359865
v 0.596962 0.408350 -0.359865
v 0.582098 0.457351 -0.359865
v 0.340771 0.096180 -0.359865
v 0.195650 0.140202 -0.359865
v 0.557959 0.502511 -0.359865
v 0.084579 0.306431 -0.359865
v 0.123582 0.212270 -0.359865
v 0.099444 0.257430 -0.359865
v 0.440731 0.598718 -0.359865
v 0.525474 0.542094 -0.359865
v 0.485891 0.574579 -0.359865
v 0.156067 0.172687 -0.359865
v 0.079560 0.357391 -0.359865
v 0.391730 0.613582 -0.359865
v 0.084579 0.408350 -0.359865
v 0.099444 0.457351 -0.359865
v 0.340771 0.618601 -0.359865
v 0.156067 0.542094 -0.359865
v 0.123582 0.502511 -0.359865
v 0.289811 0.613582 -0.359865
v 0.240810 0.598718 -0.359865
v 0.195650 0.574579 -0.359865
v 0.195650 0.140202 0.359865
v 0.156067 0.172687 0.359865
v 0.240810 0.116064 0.359865
v 0.289811 0.101199 0.359865
v 0.123582 0.212270 0.359865
v 0.340771 0.096180 0.359865
v 0.087465 0.296920 0.359865
v 0.099444 0.257430 0.359865
v 0.391730 0.101199 0.359865
v 0.082034 0.332276 0.359865
v 0.084579 0.306431 0.359865
v 0.079560 0.357391 0.359865
v 0.084579 0.408350 0.359865
v 0.099444 0.457351 0.359865
v 0.123582 0.502511 0.359865
v 0.156067 0.542094 0.359865
v 0.195650 0.574579 0.359865
v 0.240810 0.598718 0.359865
v 0.289811 0.613582 0.359865
v 0.391730 0.613582 0.359865
v 0.340771 0.618601 0.359865
v 0.485891 0.140202 0.359865
v 0.485891 0.574579 0.359865
v 0.525474 0.172687 0.359865
v 0.525474 0.542094 0.359865
v 0.582098 0.257430 0.359865
v 0.582098 0.457351 0.359865
v 0.601981 0.357391 0.359865
v 0.596962 0.306431 0.359865
v 0.596962 0.408350 0.359865
v 0.557959 0.212270 0.359865
v 0.557959 0.502511 0.359865
v 0.440731 0.116064 0.359865
v 0.440731 0.598718 0.359865
vn -1.0000 -0.0000 -0.0000
vn -0.0000 -0.0000 -1.0000
vn -0.3291 -0.9443 -0.0000
vn -0.4596 -0.8881 -0.0000
vn 1.0000 -0.0000 -0.0000
vn -0.0000 -0.0000 1.0000
vn 0.6200 0.7846 -0.0002
vn 0.6221 0.7830 -0.0003
vn -0.9611 -0.2760 -0.0000
vn -1.0000 -0.0077 -0.0000
vn 1.0000 -0.0038 -0.0000
vn -0.0000 -1.0000 -0.0000
vn -0.0000 1.0000 -0.0000
vn -0.0980 -0.9952 -0.0000
vn -0.2903 -0.9569 -0.0000
vn -0.4714 -0.8819 -0.0000
vn -0.6344 -0.7730 -0.0000
vn -0.7730 -0.6344 -0.0000
vn -0.8819 -0.4714 -0.0000
vn -0.9569 -0.2903 -0.0000
vn -0.9952 -0.0980 -0.0000
vn -0.9952 0.0980 -0.0000
vn -0.9569 0.2903 -0.0000
vn -0.8819 0.4714 -0.0000
vn -0.7730 0.6344 -0.0000
vn -0.6344 0.7730 -0.0000
vn -0.4714 0.8819 -0.0000
vn -0.2903 0.9569 -0.0000
vn -0.0980 0.9952 -0.0000
vn 0.0980 0.9952 -0.0000
vn 0.2903 0.9569 -0.0000
vn 0.4714 0.8819 -0.0000
vn 0.6344 0.7730 -0.0000
vn 0.7730 0.6344 -0.0000
vn 0.8819 0.4714 -0.0000
vn 0.9569 0.2903 -0.0000
vn 0.9952 0.0980 -0.0000
vn 0.9952 -0.0980 -0.0000
vn 0.9569 -0.2903 -0.0000
vn 0.8819 -0.4714 -0.0000
vn 0.7730 -0.6344 -0.0000
vn 0.6344 -0.7730 -0.0000
vn 0.4714 -0.8819 -0.0000
vn 0.2903 -0.9569 -0.0000
vn 0.0980 -0.9952 -0.0000
vn -1.0000 -0.0038 -0.0000
vn -0.0418 -0.9991 -0.0000
vn -0.1278 -0.9918 -0.0000
vn -0.2214 -0.9752 -0.0000
vn -0.6221 -0.7830 -0.0000
vn -0.8137 -0.5813 -0.0000
vn -0.9724 -0.2335 -0.0000
vn 0.7891 -0.6142 -0.0008
vn 0.9996 0.0266 0.0009
vn -0.0415 0.9991 -0.0000
vn -0.4563 -0.8898 -0.0000
vn 0.6221 0.7830 -0.0000
vn 0.8137 0.5813 -0.0000
vn 0.8258 0.5640 -0.0022
vn 0.9648 0.2631 0.0005
vn 0.0418 -0.9991 -0.0000
vn 0.1278 -0.9918 -0.0000
vn 0.2214 -0.9752 -0.0000
vn 0.3291 -0.9443 -0.0000
vn 0.4596 -0.8881 -0.0000
vn 0.6221 -0.7830 -0.0000
vn 0.8137 -0.5813 -0.0000
vn 0.9679 -0.2512 -0.0000
vt 0.375000 0.000000
vt 0.625000 0.000000
vt 0.625000 0.250000
vt 0.375000 0.250000
vt 0.375000 0.500000
vt 0.442189 0.281955
vt 0.442189 0.401132
vt 0.468943 0.400928
vt 0.468943 0.400928
vt 0.468943 0.401132
vt 0.485622 0.383738
vt 0.485622 0.866262
vt 0.488774 0.875305
vt 0.488774 0.374695
vt 0.472648 0.400068
vt 0.477401 0.396673
vt 0.488428 0.404684
vt 0.482990 0.411529
vt 0.476259 0.415941
vt 0.472491 0.417045
vt 0.468943 0.417065
vt 0.442189 0.417065
vt 0.442189 0.467719
vt 0.468943 0.467616
vt 0.472648 0.466727
vt 0.477402 0.463331
vt 0.481782 0.457817
vt 0.485622 0.450396
vt 0.488774 0.441353
vt 0.491115 0.431037
vt 0.492557 0.419843
vt 0.493044 0.408202
vt 0.509507 0.409848
vt 0.509817 0.413002
vt 0.511259 0.417755
vt 0.513601 0.422136
vt 0.516752 0.425976
vt 0.520592 0.429127
vt 0.524973 0.431469
vt 0.529727 0.432911
vt 0.534670 0.433398
vt 0.539614 0.432911
vt 0.544367 0.431469
vt 0.548748 0.429127
vt 0.552588 0.425976
vt 0.555740 0.422136
vt 0.558081 0.417755
vt 0.559523 0.413002
vt 0.560010 0.408058
vt 0.559523 0.403114
vt 0.558082 0.398361
vt 0.555740 0.393980
vt 0.552588 0.390140
vt 0.548748 0.386989
vt 0.544368 0.384647
vt 0.539614 0.383205
vt 0.534670 0.382718
vt 0.529727 0.383205
vt 0.524973 0.384647
vt 0.520592 0.386989
vt 0.516752 0.390140
vt 0.513601 0.393980
vt 0.511259 0.398361
vt 0.510078 0.402255
vt 0.492563 0.396622
vt 0.481782 0.391159
vt 0.491115 0.364379
vt 0.492557 0.353185
vt 0.510278 0.348008
vt 0.511259 0.351241
vt 0.513601 0.355622
vt 0.516752 0.359462
vt 0.520592 0.362613
vt 0.524973 0.364955
vt 0.529727 0.366397
vt 0.534670 0.366884
vt 0.539614 0.366397
vt 0.544368 0.364955
vt 0.548748 0.362613
vt 0.552588 0.359462
vt 0.555740 0.355622
vt 0.558081 0.351241
vt 0.559523 0.346487
vt 0.560010 0.341544
vt 0.559523 0.336600
vt 0.558081 0.331846
vt 0.555740 0.327466
vt 0.552588 0.323626
vt 0.548748 0.320474
vt 0.544368 0.318133
vt 0.539614 0.316691
vt 0.534670 0.316204
vt 0.529727 0.316691
vt 0.524973 0.318133
vt 0.520592 0.320474
vt 0.516752 0.323626
vt 0.513601 0.327466
vt 0.511259 0.331846
vt 0.509817 0.336600
vt 0.509483 0.339999
vt 0.493044 0.341544
vt 0.492557 0.329902
vt 0.491115 0.318708
vt 0.488774 0.308392
vt 0.485622 0.299350
vt 0.481782 0.291929
vt 0.477401 0.286415
vt 0.472648 0.283019
vt 0.468943 0.281955
vt 0.625000 0.500000
vt 0.509817 0.403114
vt 0.509330 0.408058
vt 0.481782 0.858841
vt 0.488539 0.404469
vt 0.509817 0.346487
vt 0.509330 0.341544
vt 0.625000 0.750000
vt 0.375000 0.750000
vt 0.442189 0.968045
vt 0.375000 1.000000
vt 0.442189 0.848868
vt 0.468943 0.849072
vt 0.468943 0.848868
vt 0.468943 0.849072
vt 0.485433 0.841545
vt 0.843750 0.621401
vt 0.843750 0.878599
vt 0.000000 0.000000
vt 0.468943 0.282160
vt 0.468943 0.968045
vt 0.524973 0.865353
vt 0.528804 0.866515
vt 0.534670 0.883116
vt 0.529727 0.883603
vt 0.524973 0.885045
vt 0.520592 0.887387
vt 0.516752 0.890539
vt 0.513601 0.894378
vt 0.511259 0.898759
vt 0.510279 0.901992
vt 0.492557 0.896815
vt 0.491115 0.885621
vt 0.477401 0.853327
vt 0.472648 0.849932
vt 0.488429 0.845316
vt 0.492563 0.853378
vt 0.493044 0.841798
vt 0.492557 0.830157
vt 0.491115 0.818963
vt 0.488774 0.808647
vt 0.485622 0.799604
vt 0.481782 0.792183
vt 0.477401 0.786669
vt 0.472648 0.783273
vt 0.468943 0.782384
vt 0.442189 0.782281
vt 0.442189 0.832936
vt 0.625000 1.000000
vt 0.468944 0.967840
vt 0.472648 0.966981
vt 0.477401 0.963585
vt 0.481782 0.958071
vt 0.485622 0.950650
vt 0.488774 0.941608
vt 0.491115 0.931292
vt 0.492557 0.920098
vt 0.493044 0.908456
vt 0.509483 0.910001
vt 0.509817 0.913400
vt 0.511259 0.918153
vt 0.513601 0.922535
vt 0.516752 0.926374
vt 0.520592 0.929526
vt 0.524973 0.931867
vt 0.529727 0.933309
vt 0.534671 0.933796
vt 0.539614 0.933309
vt 0.544367 0.931867
vt 0.548748 0.929526
vt 0.552588 0.926374
vt 0.555740 0.922534
vt 0.558082 0.918154
vt 0.559523 0.913400
vt 0.560010 0.908456
vt 0.559523 0.903513
vt 0.558081 0.898759
vt 0.555740 0.894378
vt 0.552588 0.890538
vt 0.548748 0.887387
vt 0.544367 0.885045
vt 0.539614 0.883603
vt 0.532234 0.867042
vt 0.534670 0.867282
vt 0.539614 0.866795
vt 0.544367 0.865353
vt 0.548749 0.863011
vt 0.552588 0.859860
vt 0.555740 0.856020
vt 0.558081 0.851639
vt 0.559523 0.846885
vt 0.560010 0.841941
vt 0.559523 0.836998
vt 0.558081 0.832245
vt 0.555740 0.827864
vt 0.552588 0.824024
vt 0.548748 0.820872
vt 0.544368 0.818531
vt 0.539614 0.817089
vt 0.534670 0.816602
vt 0.529727 0.817089
vt 0.524973 0.818531
vt 0.520592 0.820873
vt 0.516752 0.824024
vt 0.513601 0.827864
vt 0.511259 0.832244
vt 0.509817 0.836998
vt 0.509330 0.841942
vt 0.509817 0.846885
vt 0.511259 0.851639
vt 0.513601 0.856020
vt 0.516752 0.859860
vt 0.520592 0.863011
vt 0.529727 0.866795
vt 0.509331 0.908456
vt 0.509817 0.903513
vt 0.125000 0.500000
vt 0.125000 0.750000
vt 0.875000 0.500000
vt 0.875000 0.750000
vt 1.000000 0.590368
vt 0.968750 0.590368
vt 0.968750 0.909632
vt 1.000000 0.909632
vt 0.937500 0.590368
vt 0.937500 0.909632
vt 0.906250 0.590368
vt 0.906250 0.909632
vt 0.875000 0.590368
vt 0.875000 0.909632
vt 0.843750 0.590368
vt 0.843750 0.909632
vt 0.812500 0.590368
vt 0.812500 0.909632
vt 0.781250 0.590368
vt 0.781250 0.909632
vt 0.750000 0.590368
vt 0.750000 0.909632
vt 0.718750 0.590368
vt 0.718750 0.909632
vt 0.687500 0.590368
vt 0.687500 0.909632
vt 0.656250 0.590368
vt 0.656250 0.909632
vt 0.625000 0.590368
vt 0.625000 0.909632
vt 0.593750 0.590368
vt 0.593750 0.909632
vt 0.562500 0.590368
vt 0.562500 0.909632
vt 0.541245 0.909632
vt 0.541245 0.590368
vt 0.531250 0.590368
vt 0.531250 0.909632
vt 0.500000 0.590368
vt 0.500000 0.909632
vt 0.490234 0.909632
vt 0.490234 0.590368
vt 0.468750 0.590368
vt 0.468750 0.909632
vt 0.437500 0.590368
vt 0.437500 0.909632
vt 0.406250 0.590368
vt 0.406250 0.909632
vt 0.375000 0.590368
vt 0.375000 0.909632
vt 0.343750 0.590368
vt 0.343750 0.909632
vt 0.312500 0.590368
vt 0.312500 0.909632
vt 0.281250 0.590368
vt 0.281250 0.909632
vt 0.250000 0.590368
vt 0.250000 0.909632
vt 0.218750 0.590368
vt 0.218750 0.909632
vt 0.187500 0.590368
vt 0.187500 0.909632
vt 0.156250 0.590368
vt 0.156250 0.909632
vt 0.125000 0.590368
vt 0.125000 0.909632
vt 0.093750 0.590368
vt 0.093750 0.909632
vt 0.062500 0.590368
vt 0.062500 0.909632
vt 0.031250 0.590368
vt 0.031250 0.909632
vt 0.000000 0.590368
vt 0.000000 0.909632
vt 0.375000 0.704839
vt 0.375000 0.545161
vt 0.268894 0.545161
vt 0.268894 0.704839
vt 0.625000 0.704828
vt 0.625000 0.545172
vt 1.000000 0.590368
vt 0.937500 0.590368
vt 0.937500 0.909632
vt 0.906250 0.590368
vt 0.906250 0.909632
vt 0.875000 0.909632
vt 0.843750 0.909632
vt 0.812500 0.909632
vt 0.781250 0.590368
vt 0.781250 0.909632
vt 0.757833 0.590345
vt 0.757833 0.909655
vt 0.468943 0.832935
vt 0.473322 0.833362
vt 0.906250 0.590368
vt 0.843750 0.590368
vt 0.718750 0.909632
vt 0.687500 0.590368
vt 0.687500 0.909632
vt 0.656250 0.590368
vt 0.593750 0.909632
vt 0.562500 0.909632
vt 0.531250 0.909632
vt 0.511315 0.590368
vt 0.468750 0.590368
vt 0.468750 0.909632
vt 0.463102 0.590368
vt 0.437500 0.590368
vt 0.375000 0.590368
vt 0.375000 0.909632
vt 0.312500 0.909632
vt 0.287316 0.909632
vt 0.265401 0.909632
vt 0.218750 0.909632
vt 0.187500 0.590368
vt 0.125000 0.590368
vt 0.093750 0.590368
vt 0.062500 0.909632
vt 0.031250 0.909632
vt 0.482991 0.838471
vt 0.477090 0.834256
s 0
f 1/1/1 2/2/1 4/3/1 3/4/1
f 7/5/2 3/4/2 9/6/2 25/7/2
f 26/8/2 28/9/2 24/10/2
f 22/11/3 49/12/3 48/13/3 29/14/3
f 24/10/2 28/9/2 23/15/2 27/16/2 133/17/2 120/18/2 122/19/2 121/20/2 123/21/2 119/22/2 128/23/2 129/24/2 130/25/2 131/26/2 126/27/2 127/28/2 132/29/2 124/30/2 125/31/2 134/32/2 157/33/2 160/34/2 158/35/2 159/36/2 154/37/2 155/38/2 156/39/2 162/40/2 161/41/2 166/42/2 167/43/2 170/44/2 175/45/2 176/46/2 174/47/2 179/48/2 182/49/2 185/50/2 186/51/2 187/52/2 183/53/2 184/54/2 181/55/2 180/56/2 178/57/2 171/58/2 173/59/2 172/60/2 177/61/2 169/62/2 165/63/2 164/64/2 135/65/2 21/66/2 22/11/2 29/14/2 16/67/2 15/68/2 70/69/2 71/70/2 69/71/2 65/72/2 59/73/2 66/74/2 62/75/2 61/76/2 63/77/2 64/78/2 60/79/2 67/80/2 57/81/2 58/82/2 55/83/2 56/84/2 54/85/2 52/86/2 53/87/2 51/88/2 68/89/2 73/90/2 72/91/2 77/92/2 78/93/2 82/94/2 84/95/2 83/96/2 81/97/2 79/98/2 80/99/2 74/100/2 17/101/2 20/102/2 19/103/2 18/104/2 14/105/2 13/106/2 12/107/2 10/108/2 11/109/2 9/6/2 3/4/2 4/3/2 8/110/2 7/5/2 25/7/2
f 135/65/2 164/64/2 163/111/2 168/112/2 157/33/2 134/32/2
f 22/11/4 21/66/4 44/113/4 49/12/4
f 133/114/2 27/16/2 21/66/2 135/65/2
f 133/114/2 135/65/2 134/32/2
f 76/115/2 70/69/2 15/68/2 17/101/2 74/100/2 75/116/2
f 7/5/5 8/110/5 6/117/5 5/118/5
f 30/119/6 1/120/6 5/118/6 43/121/6
f 36/122/6 42/123/6 50/124/6
f 138/125/7 120/18/7 133/126/7
f 138/125/8 133/126/8 152/127/8
f 41/128/9 23/15/9 28/9/9 26/8/9 24/10/9 42/123/9 50/124/9 36/122/9
f 25/7/10 43/121/10 42/123/10 36/122/10 50/124/10 28/9/10 26/8/10 24/10/10
f 11/129/11 31/130/11 30/119/11 9/6/11
f 195/131/6 194/132/6 95/133/6 96/134/6 100/135/6 93/136/6 99/137/6 103/138/6 105/139/6 104/140/6 46/141/6 47/142/6 48/13/6 49/12/6 44/113/6 40/143/6 41/144/6 138/125/6 152/145/6 151/146/6 153/147/6 142/148/6 150/149/6 149/150/6 148/151/6 147/152/6 144/153/6 143/154/6 146/155/6 145/156/6 136/157/6 43/121/6 5/118/6 6/117/6 2/158/6 1/120/6 30/119/6 31/159/6 32/160/6 33/161/6 34/162/6 35/163/6 37/164/6 38/165/6 39/166/6 45/167/6 111/168/6 117/169/6 116/170/6 118/171/6 107/172/6 108/173/6 106/174/6 115/175/6 114/176/6 109/177/6 110/178/6 102/179/6 85/180/6 87/181/6 86/182/6 91/183/6 88/184/6 90/185/6 89/186/6 101/187/6 92/188/6 94/189/6 98/190/6 97/191/6 197/192/6 199/193/6 200/194/6 201/195/6 202/196/6 203/197/6 204/198/6 205/199/6 206/200/6 208/201/6 207/202/6 221/203/6 210/204/6 212/205/6 219/206/6 214/207/6 217/208/6 215/209/6 216/210/6 213/211/6 218/212/6 211/213/6 209/214/6 220/215/6 196/216/6 193/217/6 191/218/6 190/219/6 188/220/6 189/221/6 192/222/6
f 198/223/6 197/192/6 97/191/6 95/133/6 194/132/6
f 151/146/6 152/145/6 153/147/6
f 112/224/6 111/168/6 45/167/6 46/141/6 104/140/6 113/225/6
f 3/226/12 7/5/12 5/118/12 1/227/12
f 8/110/13 4/228/13 2/229/13 6/117/13
f 56/230/14 55/231/14 90/232/14 88/233/14
f 55/231/15 58/234/15 89/235/15 90/232/15
f 58/234/16 57/236/16 101/237/16 89/235/16
f 57/236/17 67/238/17 92/239/17 101/237/17
f 92/239/18 67/238/18 60/240/18 94/241/18
f 94/241/19 60/240/19 64/242/19 98/243/19
f 98/243/20 64/242/20 63/244/20 97/245/20
f 97/245/21 63/244/21 61/246/21 95/247/21
f 95/247/22 61/246/22 62/248/22 96/249/22
f 96/249/23 62/248/23 66/250/23 100/251/23
f 100/251/24 66/250/24 59/252/24 93/253/24
f 93/253/25 59/252/25 65/254/25 99/255/25
f 99/255/26 65/254/26 69/256/26 103/257/26
f 103/257/27 69/256/27 71/258/27 105/259/27
f 104/260/28 105/259/28 71/258/28 70/261/28 76/262/28 113/263/28
f 113/263/29 76/262/29 75/264/29 112/265/29
f 111/266/30 112/265/30 75/264/30 74/267/30 80/268/30 117/269/30
f 117/269/31 80/268/31 79/270/31 116/271/31
f 116/271/32 79/270/32 81/272/32 118/273/32
f 118/273/33 81/272/33 83/274/33 107/275/33
f 83/274/34 84/276/34 108/277/34 107/275/34
f 84/276/35 82/278/35 106/279/35 108/277/35
f 82/278/36 78/280/36 115/281/36 106/279/36
f 78/280/37 77/282/37 114/283/37 115/281/37
f 77/282/38 72/284/38 109/285/38 114/283/38
f 72/284/39 73/286/39 110/287/39 109/285/39
f 110/287/40 73/286/40 68/288/40 102/289/40
f 68/288/41 51/290/41 85/291/41 102/289/41
f 51/290/42 53/292/42 87/293/42 85/291/42
f 53/292/43 52/294/43 86/295/43 87/293/43
f 52/294/44 54/296/44 91/297/44 86/295/44
f 54/296/45 56/298/45 88/299/45 91/297/45
f 145/300/13 128/301/13 119/302/13 136/303/13
f 146/304/46 129/305/46 128/301/46 145/300/46
f 134/306/47 125/231/47 142/232/47 153/233/47
f 125/231/48 124/307/48 150/308/48 142/232/48
f 124/307/49 132/309/49 149/310/49 150/308/49
f 132/309/3 127/238/3 148/311/3 149/310/3
f 127/238/4 126/240/4 147/312/4 148/311/4
f 126/240/50 131/242/50 144/313/50 147/312/50
f 144/313/51 131/242/51 130/314/51 143/315/51
f 143/315/52 130/314/52 129/316/52 146/317/52
f 133/126/53 134/306/53 153/233/53 152/127/53
f 21/66/50 27/16/50 40/143/50 44/113/50
f 25/7/13 9/6/13 30/119/13 43/121/13
f 141/318/54 123/21/54 121/20/54 139/319/54
f 119/128/5 123/128/5 141/128/5 136/128/5
f 153/128/55 134/128/55 135/128/55 151/128/55
f 151/128/56 135/128/56 133/128/56 152/128/56
f 182/230/14 179/231/14 207/232/14 208/233/14
f 179/231/15 174/234/15 221/235/15 207/232/15
f 174/234/16 176/320/16 210/237/16 221/235/16
f 176/320/17 175/238/17 212/239/17 210/237/17
f 170/321/18 219/241/18 212/239/18 175/238/18
f 167/242/19 214/243/19 219/241/19 170/321/19
f 214/243/20 167/242/20 166/314/20 217/245/20
f 161/246/21 215/247/21 217/245/21 166/314/21
f 215/247/22 161/246/22 162/248/22 216/322/22
f 216/322/23 162/248/23 156/323/23 213/324/23
f 213/324/24 156/323/24 155/325/24 218/253/24
f 218/253/25 155/325/25 154/254/25 211/255/25
f 211/255/26 154/254/26 159/256/26 209/326/26
f 209/326/27 159/256/27 158/258/27 220/327/27
f 220/327/28 158/258/28 160/262/28 196/328/28
f 196/328/29 160/262/29 157/329/29 168/264/29 193/265/29
f 193/265/30 168/264/30 163/330/30 191/331/30
f 191/331/31 163/330/31 164/332/31 165/333/31 190/271/31
f 190/271/32 165/333/32 169/272/32 188/273/32
f 188/273/33 169/272/33 177/334/33 189/335/33
f 177/334/34 172/276/34 192/277/34 189/335/34
f 172/276/35 173/278/35 195/336/35 192/277/35
f 173/278/36 171/280/36 198/281/36 194/337/36 195/336/36
f 171/280/37 178/282/37 199/283/37 197/338/37 198/281/37
f 178/282/38 180/284/38 200/339/38 199/283/38
f 180/284/39 181/340/39 201/287/39 200/339/39
f 181/340/40 184/288/40 202/289/40 201/287/40
f 184/288/41 183/341/41 203/291/41 202/289/41
f 183/341/42 187/342/42 204/293/42 203/291/42
f 187/342/43 186/294/43 205/343/43 204/293/43
f 186/294/44 185/296/44 206/344/44 205/343/44
f 185/296/45 182/298/45 208/299/45 206/344/45
f 138/125/57 137/345/57 120/18/57
f 137/345/58 140/346/58 120/18/58
f 122/19/59 120/18/59 140/346/59
f 23/15/51 41/128/51 40/143/51 27/16/51
f 122/19/60 140/346/60 139/319/60 121/20/60
f 139/319/6 140/346/6 137/345/6 138/125/6 41/144/6 50/124/6 42/123/6 43/121/6 136/157/6 141/318/6
f 29/14/49 48/13/49 47/142/49 16/67/49
f 16/67/48 47/142/48 46/141/48 15/68/48
f 15/68/47 46/141/47 45/167/47 17/101/47
f 17/101/61 45/167/61 39/166/61 20/102/61
f 20/102/62 39/166/62 38/165/62 19/103/62
f 19/103/63 38/165/63 37/164/63 18/104/63
f 18/104/64 37/164/64 35/163/64 14/105/64
f 14/105/65 35/163/65 34/162/65 13/106/65
f 13/106/66 34/162/66 33/161/66 12/107/66
f 12/107/67 33/161/67 32/160/67 10/108/67
f 31/159/68 11/109/68 10/108/68 32/160/68
