# Blender 4.3.2
# www.blender.org
mtllib ingress.mtl
o ingress
v -1.632443 0.594997 0.273016
v -1.632443 1.147135 0.273016
v -1.632443 0.594997 -0.279122
v -1.632443 1.147135 -0.279122
v -1.217188 0.594997 0.273016
v -0.980755 1.147135 0.273016
v -1.217188 0.594997 -0.279122
v -0.980755 1.147135 -0.279122
v 0.356954 -0.545222 -0.279122
v 0.101856 -1.109804 -0.279122
v 0.101856 -1.109804 0.273015
v 0.356954 -0.545222 0.273015
v 0.356954 -0.545222 -0.279122
v 0.101856 -1.109804 -0.279122
v 0.101856 -1.109804 0.273015
v 0.356954 -0.545222 0.273015
v 0.772095 -0.545222 -0.279122
v 0.772095 -1.109804 -0.279122
v 0.772095 -1.109804 0.273015
v 0.772095 -0.545222 0.273015
v 0.772095 -0.119050 -0.366472
v 0.772094 -1.535975 -0.366472
v 0.772094 -1.535975 0.360616
v 0.772095 -0.119050 0.360616
v 0.772095 -0.119050 -0.366472
v 0.772094 -1.535975 -0.366472
v 0.772094 -1.535975 0.360616
v 0.772095 -0.119050 0.360616
v 1.596372 -0.827513 -0.366472
v 1.596372 -0.827513 -0.366472
v 1.596372 -0.827513 0.360616
v 1.596372 -0.827513 0.360616
vn -1.0000 -0.0000 -0.0000
vn -0.0000 -0.0000 -1.0000
vn 0.7845 0.6201 -0.0000
vn -0.0000 -0.0000 1.0000
vn -0.0000 -1.0000 -0.0000
vn -0.0000 1.0000 -0.0000
vn -0.7909 -0.6119 -0.0000
vn 0.6518 0.7584 -0.0000
vn 0.6518 -0.7584 -0.0000
vt 0.375000 0.000000
vt 0.625000 0.000000
vt 0.625000 0.250000
vt 0.375000 0.250000
vt 0.625000 0.500000
vt 0.375000 0.500000
vt 0.625000 0.750000
vt 0.375000 0.750000
vt 0.625000 1.000000
vt 0.375000 1.000000
vt 0.125000 0.500000
vt 0.125000 0.750000
vt 0.875000 0.500000
vt 0.875000 0.750000
s 0
f 1/1/1 2/2/1 4/3/1 3/4/1
f 3/4/2 4/3/2 8/5/2 7/6/2
f 8/5/3 6/7/3 12/7/3 9/5/3
f 5/8/4 6/7/4 2/9/4 1/10/4
f 3/11/5 7/6/5 5/8/5 1/12/5
f 8/5/6 4/13/6 2/14/6 6/7/6
f 12/7/6 11/8/6 15/8/6 16/7/6
f 7/6/2 8/5/2 9/5/2 10/6/2
f 6/7/4 5/8/4 11/8/4 12/7/4
f 5/8/7 7/6/7 10/6/7 11/8/7
f 13/5/6 16/7/6 20/7/6 17/5/6
f 11/8/6 10/6/6 14/6/6 15/8/6
f 9/5/6 12/7/6 16/7/6 13/5/6
f 10/6/6 9/5/6 13/5/6 14/6/6
f 17/5/1 20/7/1 24/7/1 21/5/1
f 14/6/2 13/5/2 17/5/2 18/6/2
f 16/7/4 15/8/4 19/8/4 20/7/4
f 15/8/5 14/6/5 18/6/5 19/8/5
f 24/7/6 23/8/6 27/8/6 28/7/6
f 18/6/1 17/5/1 21/5/1 22/6/1
f 20/7/1 19/8/1 23/8/1 24/7/1
f 19/8/1 18/6/1 22/6/1 23/8/1
f 25/5/8 28/7/8 32/7/8 29/5/8
f 23/8/6 22/6/6 26/6/6 27/8/6
f 21/5/6 24/7/6 28/7/6 25/5/6
f 22/6/6 21/5/6 25/5/6 26/6/6
f 30/6/6 29/5/6 32/7/6 31/8/6
f 26/6/2 25/5/2 29/5/2 30/6/2
f 28/7/4 27/8/4 31/8/4 32/7/4
f 27/8/9 26/6/9 30/6/9 31/8/9
o arrow.001
v -1.624977 -0.549574 -0.278978
v -1.624977 -1.101711 -0.278978
v -1.624977 -0.549573 0.273159
v -1.624977 -1.101711 0.273160
v -1.209722 -0.549574 -0.278978
v -0.973289 -1.101711 -0.278978
v -1.209722 -0.549573 0.273159
v -0.973289 -1.101711 0.273160
v 0.364419 0.590646 0.273159
v 0.109321 1.155228 0.273159
v 0.109321 1.155227 -0.278978
v 0.364419 0.590646 -0.278978
v 0.779561 0.590646 0.273159
v 0.779561 1.155228 0.273159
v 0.779561 1.155227 -0.278978
v 0.779561 0.590646 -0.278978
v 0.779561 0.170696 0.352741
v 0.779560 1.587621 0.352741
v 0.779560 1.587621 -0.359301
v 0.779561 0.170696 -0.359301
v 1.603838 0.879159 0.352741
v 1.603838 0.879159 0.352741
v 1.603838 0.879158 -0.359301
v 1.603838 0.879158 -0.359301
v 0.051908 0.195282 -0.278978
v -0.566098 -0.586566 -0.278978
v 0.051908 0.195283 0.273159
v -0.566098 -0.586566 0.273159
v -0.902221 -0.152143 0.273159
v -0.294414 0.633419 0.273159
v -0.294414 0.633419 -0.278978
v -0.902221 -0.152143 -0.278978
vn -1.0000 -0.0000 -0.0000
vn -0.0000 -0.0000 1.0000
vn 0.7845 -0.6201 -0.0000
vn -0.0000 -0.0000 -1.0000
vn -0.0000 1.0000 -0.0000
vn -0.0000 -1.0000 -0.0000
vn -0.7909 0.6119 -0.0000
vn 0.6518 -0.7584 -0.0000
vn 0.6518 0.7584 -0.0000
vn -0.7845 -0.6201 -0.0000
vn 0.7909 0.6119 -0.0000
vt 0.375000 0.000000
vt 0.625000 0.000000
vt 0.625000 0.250000
vt 0.375000 0.250000
vt 0.625000 0.500000
vt 0.375000 0.500000
vt 0.625000 0.750000
vt 0.625000 0.750000
vt 0.375000 0.750000
vt 0.625000 1.000000
vt 0.375000 1.000000
vt 0.125000 0.500000
vt 0.125000 0.750000
vt 0.875000 0.500000
vt 0.875000 0.750000
vt 0.625000 0.712432
vt 0.625000 0.712432
vt 0.625000 0.574746
vt 0.375000 0.712432
vt 0.375000 0.574746
vt 0.375000 0.574746
s 0
f 33/15/10 34/16/10 36/17/10 35/18/10
f 35/18/11 36/17/11 40/19/11 39/20/11
f 57/21/12 44/21/12 41/19/12 59/19/12
f 60/19/12 40/19/12 38/21/12 58/22/12
f 37/23/13 38/21/13 34/24/13 33/25/13
f 35/26/14 39/20/14 37/23/14 33/27/14
f 40/19/15 36/28/15 34/29/15 38/21/15
f 41/19/11 42/20/11 62/20/11 59/19/11
f 39/20/11 40/19/11 60/19/11 61/20/11
f 43/23/13 44/21/13 57/21/13 63/23/13
f 38/21/13 37/23/13 64/23/13 58/22/13
f 42/20/16 43/23/16 63/23/16 62/20/16
f 37/23/16 39/20/16 61/20/16 64/23/16
f 41/19/15 44/21/15 48/21/15 45/19/15
f 45/19/10 48/21/10 52/21/10 49/19/10
f 42/20/11 41/19/11 45/19/11 46/20/11
f 44/21/13 43/23/13 47/23/13 48/21/13
f 43/23/14 42/20/14 46/20/14 47/23/14
f 46/20/10 45/19/10 49/19/10 50/20/10
f 48/21/10 47/23/10 51/23/10 52/21/10
f 47/23/10 46/20/10 50/20/10 51/23/10
f 49/19/17 52/21/17 56/21/17 53/19/17
f 54/20/14 53/19/14 56/21/14 55/23/14
f 50/20/11 49/19/11 53/20/11 54/20/11
f 52/21/13 51/23/13 55/21/13 56/21/13
f 51/23/18 50/20/18 54/20/18 55/23/18
f 59/30/19 62/31/19 63/32/19 57/32/19
f 60/33/20 58/34/20 64/35/20 61/33/20
