# Blender 4.3.2
# www.blender.org
mtllib job.mtl
o job
v -0.305580 -1.175523 0.316800
v -1.175523 -1.175523 0.316800
v 0.557671 1.175523 0.316800
v -0.305580 -1.175523 -0.316800
v 0.557671 1.175523 -0.316800
v -1.175523 -1.175523 -0.316800
v -0.305580 -0.555459 0.316800
v -0.305580 -0.350479 0.316800
v -0.305580 0.350479 0.316800
v 0.557671 0.555459 0.316800
v -0.305580 -0.350479 -0.316800
v 0.557671 0.555459 -0.316800
v -1.175523 -0.555459 0.316800
v -0.305580 0.350479 -0.316800
v -0.305580 -0.555459 -0.316800
v 1.172125 1.175523 -0.316800
v -1.175523 -0.350479 0.316800
v -1.175523 0.350479 0.316800
v 1.172125 0.555459 -0.316800
v -1.175523 -0.350479 -0.316800
v 0.308873 -1.175523 -0.316800
v 0.308873 -1.175523 -0.316800
v 1.174549 -1.175523 -0.316800
v -1.175523 0.350479 -0.316800
v 0.308873 -0.555459 -0.316800
v 0.308873 -0.555459 -0.316800
v -1.175523 -0.555459 -0.316800
v 1.174549 -1.175523 -0.316800
v 0.308873 -0.350479 -0.316800
v 0.308873 -0.350479 -0.316800
v 1.174549 0.350479 -0.316800
v 0.308873 0.350479 -0.316800
v 0.308873 0.350479 -0.316800
v 1.174549 -0.350479 -0.316800
v 1.172124 1.175523 0.316800
v 1.172125 0.555459 0.316800
v -0.561070 -1.175523 -0.316800
v 1.174549 -0.350479 0.316800
v 0.308873 -1.175523 0.316800
v 0.308873 -1.175523 0.316800
v -0.561070 -1.175523 -0.316800
v 1.174549 0.350479 0.316800
v 0.308873 -0.555459 0.316800
v -0.561070 -0.555459 -0.316800
v -0.561070 -0.555459 -0.316800
v 0.308873 -0.555459 0.316800
v -0.561070 -0.350479 -0.316800
v -0.561070 -0.350479 -0.316800
v 0.308873 -0.350479 0.316800
v 0.308873 -0.350479 0.316800
v 0.308873 0.350479 0.316800
v -0.561070 0.350479 -0.316800
v 0.308873 0.350479 0.316800
v -0.561070 0.350479 -0.316800
v 1.174549 -0.555459 0.316800
v 1.174549 -0.555459 0.316800
v -0.561070 -1.175523 0.316800
v -0.561070 -1.175523 0.316800
v -0.561070 -0.555459 0.316800
v -0.561070 -0.555459 0.316800
v -0.561070 -0.350479 0.316800
v -0.561070 -0.350479 0.316800
v -0.561070 0.350479 0.316800
v 1.174549 -1.175523 0.316800
v 1.174549 -1.175523 0.316800
v -0.561070 0.350479 0.316800
v 1.174549 -0.350479 -0.316800
v 1.174549 0.350479 0.316800
v 0.560096 -0.555459 -0.316800
v 0.560096 -1.175523 -0.316800
v 0.560096 -0.555459 0.316800
v 1.174549 -0.555459 -0.316800
v 1.174549 -0.555459 -0.316800
v 1.174549 -0.350479 0.316800
v 0.560096 0.350479 -0.316800
v 0.560096 -0.350479 -0.316800
v 1.174549 0.350479 -0.316800
v 0.560096 0.350479 0.316800
v 0.560096 -0.350479 0.316800
v 0.560096 -1.175523 0.316800
vn -1.0000 -0.0000 -0.0000
vn -0.0000 -0.0000 -1.0000
vn -0.0000 -0.0000 1.0000
vn -0.0000 -1.0000 -0.0000
vn -0.0000 1.0000 -0.0000
vn 1.0000 -0.0000 -0.0000
vt 0.462732 0.250000
vt 0.462732 0.000000
vt 0.537268 0.000000
vt 0.537268 0.250000
vt 0.375000 0.250000
vt 0.375000 0.000000
vt 0.440935 0.000000
vt 0.440935 0.250000
vt 0.375000 0.315338
vt 0.440935 0.315338
vt 0.440935 0.315338
vt 0.537268 0.315338
vt 0.462732 0.315338
vt 0.537268 0.315338
vt 0.440935 0.934662
vt 0.375000 0.934662
vt 0.375000 0.934662
vt 0.440935 1.000000
vt 0.375000 1.000000
vt 0.462732 0.934662
vt 0.537268 0.934662
vt 0.462732 0.934662
vt 0.537268 1.000000
vt 0.462732 1.000000
vt 0.125000 0.750000
vt 0.125000 0.500000
vt 0.190338 0.500000
vt 0.190338 0.750000
vt 0.190338 0.500000
vt 0.375000 0.539392
vt 0.375000 0.710608
vt 0.375000 0.710608
vt 0.440338 0.210608
vt 0.440338 0.039392
vt 0.375000 0.210608
vt 0.375000 0.039392
vt 0.440338 0.710608
vt 0.440338 0.539392
vt 0.809662 0.750000
vt 0.809662 0.500000
vt 0.875000 0.500000
vt 0.875000 0.750000
vt 0.559065 0.250000
vt 0.625000 0.250000
vt 0.625000 0.315338
vt 0.559065 0.315338
vt 0.625000 1.000000
vt 0.559065 1.000000
vt 0.559065 0.934662
vt 0.625000 0.934662
vt 0.559065 0.000000
vt 0.625000 0.000000
vt 0.625000 0.250000
s 0
f 20/1/1 17/2/1 18/3/1 24/4/1
f 6/5/1 2/6/1 13/7/1 27/8/1
f 41/9/2 44/10/2 45/11/2 37/9/2
f 6/5/2 27/8/2 44/10/2 41/9/2
f 20/1/2 24/4/2 54/12/2 47/13/2
f 54/12/2 52/14/2 48/13/2 47/13/2
f 60/15/3 59/15/3 57/16/3 58/17/3
f 13/18/3 2/19/3 57/16/3 59/15/3
f 61/20/3 66/21/3 63/21/3 62/22/3
f 18/23/3 17/24/3 62/22/3 63/21/3
f 2/25/4 6/26/4 41/27/4 57/28/4
f 57/28/4 41/27/4 37/29/4 58/28/4
f 24/30/5 18/31/5 63/32/5 54/30/5
f 63/32/5 66/31/5 52/30/5 54/30/5
f 45/33/5 44/33/5 59/34/5 60/34/5
f 27/35/5 13/36/5 59/34/5 44/33/5
f 62/37/4 17/31/4 20/30/4 47/38/4
f 47/38/4 48/38/4 61/37/4 62/37/4
f 26/33/6 46/34/6 40/17/6 21/27/6
f 35/39/5 16/40/5 5/41/5 3/42/5
f 32/30/6 53/32/6 49/22/6 30/38/6
f 12/43/2 5/44/2 16/45/2 19/46/2
f 3/47/3 10/48/3 36/49/3 35/50/3
f 76/1/1 79/2/1 78/3/1 75/4/1
f 70/5/1 80/6/1 71/7/1 69/8/1
f 72/10/6 55/15/6 64/28/6 28/9/6
f 42/32/6 38/37/6 34/13/6 31/30/6
f 67/38/4 34/38/4 38/37/4 74/37/4
f 74/37/4 79/31/4 76/30/4 67/38/4
f 69/35/5 71/36/5 56/34/5 73/33/5
f 23/9/2 73/10/2 72/10/2 28/9/2
f 52/30/6 66/31/6 61/20/6 48/38/6
f 45/33/6 60/34/6 58/17/6 37/29/6
f 12/43/1 10/51/1 3/52/1 5/53/1
f 10/48/4 12/43/4 19/46/4 36/49/4
f 19/46/6 16/40/6 35/50/6 36/49/6
f 72/33/5 73/33/5 56/34/5 55/34/5
f 68/32/5 42/32/5 31/30/5 77/30/5
f 75/30/5 78/31/5 68/32/5 77/30/5
f 11/1/1 8/2/1 9/3/1 14/4/1
f 4/5/1 1/6/1 7/7/1 15/8/1
f 22/9/2 25/10/2 26/10/2 21/9/2
f 4/5/2 15/8/2 25/10/2 22/9/2
f 11/1/2 14/4/2 33/12/2 29/13/2
f 33/12/2 32/12/2 30/13/2 29/13/2
f 46/15/3 43/15/3 39/17/3 40/17/3
f 7/18/3 1/19/3 39/17/3 43/15/3
f 49/22/3 53/21/3 51/21/3 50/22/3
f 9/23/3 8/24/3 50/22/3 51/21/3
f 1/25/4 4/26/4 22/27/4 39/28/4
f 39/28/4 22/27/4 21/27/4 40/28/4
f 14/30/5 9/31/5 51/32/5 33/30/5
f 51/32/5 53/32/5 32/30/5 33/30/5
f 26/33/5 25/33/5 43/34/5 46/34/5
f 15/35/5 7/36/5 43/34/5 25/33/5
f 50/37/4 8/31/4 11/30/4 29/38/4
f 29/38/4 30/38/4 49/37/4 50/37/4
f 65/28/4 23/27/4 28/27/4 64/28/4
f 80/25/4 70/26/4 23/27/4 65/28/4
f 78/23/3 79/24/3 74/22/3 68/21/3
f 38/22/5 42/21/5 68/21/5 74/22/5
f 71/18/3 80/19/3 65/17/3 56/15/3
f 55/15/3 56/15/3 65/17/3 64/17/3
f 70/5/2 69/8/2 73/10/2 23/9/2
f 77/12/5 31/12/5 34/13/5 67/13/5
f 76/1/2 75/4/2 77/12/2 67/13/2
